<svg xmlns="http://www.w3.org/2000/svg" version="1.1" xmlns:xlink="http://www.w3.org/1999/xlink" xmlns:svgjs="http://svgjs.dev/svgjs" width="2000" height="2000" viewBox="0 0 2000 2000"><g transform="matrix(1,0,0,1,-0.9999999999998863,-0.9996007579767365)"><svg viewBox="0 0 280 280" data-background-color="#ffffff" preserveAspectRatio="xMidYMid meet" height="2000" width="2000" xmlns="http://www.w3.org/2000/svg" xmlns:xlink="http://www.w3.org/1999/xlink"><g id="tight-bounds" transform="matrix(1,0,0,1,0.13999999999998636,0.14012930093124965)"><svg viewBox="0 0 279.72 279.72" height="279.72" width="279.72"><g><svg viewBox="0 0 279.72 279.72" height="279.72" width="279.72"><g><svg viewBox="0 0 279.72 279.72" height="279.72" width="279.72"><g id="textblocktransform"><svg viewBox="0 0 279.72 279.72" height="279.72" width="279.72" id="textblock"><g><svg viewBox="0 0 279.72 279.72" height="279.72" width="279.72"><g transform="matrix(1,0,0,1,78.33125135497201,73.92936372216631)"><svg viewBox="0 0 123.057497290056 131.8612725556674" height="131.8612725556674" width="123.057497290056"><g id="icon-0"><svg xmlns="http://www.w3.org/2000/svg" xmlns:xlink="http://www.w3.org/1999/xlink" version="1.1" x="0" y="0" viewBox="11.934 8.786059695537865 76.13135360654636 81.57794030446215" enable-background="new 0 0 100 100" xml:space="preserve" height="131.8612725556674" width="123.057497290056" class="icon-jxe-0" data-fill-palette-color="accent" id="jxe-0"><g fill="#19475c" data-fill-palette-color="accent"><path d="M35.742 42.748C22.595 42.748 11.934 53.406 11.934 66.556 11.934 79.704 22.594 90.364 35.742 90.364S59.549 79.705 59.549 66.556C59.549 53.406 48.89 42.748 35.742 42.748M15.226 66.556C15.226 62.205 16.582 58.174 18.893 54.854L19.157 55.054 18.998 55.695 19.586 55.856 19.478 55 19.959 54.946V53.823H20.44L20.614 54.269 20.815 54.785 21.35 55.375S20.708 55.534 20.496 55.534C20.28 55.534 20.388 56.39 20.388 56.39L21.137 56.657 21.62 55.763 22.741 54.517 23.275 52.859 24.292 51.896 23.703 51.47 24.347 51.04 24.401 50.451 22.529 50.987 22.468 50.916A20.6 20.6 0 0 1 25.769 48.626L26.647 49.008 26.058 50.131H24.881L24.667 51.147H25.631L27.022 50.292 27.984 49.33 28.144 48.421 26.754 48.315 27.716 47.672 28.624 47.833 28.466 48.795 29.695 48.045 29.91 48.634 30.178 49.49 29.482 50.345 28.734 51.04 27.609 50.88 28.145 52.003 27.129 51.843 25.416 53.608 25.845 54.197 27.236 54.089 28.413 53.714 29.912 53.556 30.606 53.396S30.606 52.967 30.552 52.701C30.498 52.433 31.087 52.754 31.087 52.754L31.73 52.38 32.21 50.882 33.976 50.078 33.708 49.65 34.137 49.116 32.746 48.9 33.121 48.365 31.354 47.776H30.445L30.765 46.974 31.14 46.599 31.11 46.569A20.6 20.6 0 0 1 35.742 46.039C38.225 46.039 40.604 46.48 42.808 47.289L42.753 47.414 41.862 47.355V47.89L42.219 48.127V48.603L42.517 49.018 41.447 48.365 40.734 48.722 41.09 49.554 41.269 50.505 41.745 51.04 42.872 51.219 42.637 51.694 42.398 52.409 43.409 53.062 43.349 53.359 41.448 51.755 41.331 52.35 42.162 53.181 42.638 53.36 41.567 53.597 41.449 54.132 40.677 53.359 40.2 52.35 40.023 51.338 39.546 51.932 39.902 53.359 40.496 53.777 40.26 55.142 39.903 54.964 39.963 55.678 39.427 55.617 38.894 54.844H38.241L37.29 54.725 36.338 54.786 35.446 55.5 34.852 56.51 33.603 57.462 33.484 57.995V58.651L33.782 59.304 34.377 58.827 34.554 59.184 34.853 59.718 34.912 59.838 35.209 60.194 35.745 59.839 35.685 58.53 36.338 57.697 36.407 57.394C36.458 57.177 36.515 56.925 36.515 56.925L36.753 56.269 37.17 56.33 37.051 56.865 36.812 58.053 37.943 57.935 38.36 58.053 37.467 58.293 37.586 58.887 36.573 59.539 36.634 60.194 35.743 60.432 35.565 60.907 34.851 60.67H34.375V59.66L33.839 59.84V60.374L32.353 61.563 31.52 61.86 31.165 62.276 29.977 61.978 29.916 62.514 30.689 62.811 30.629 63.88 28.487 63.82 28.191 64.296 27.893 65.128 27.537 65.844 28.072 66.438 28.667 67.15 30.57 66.555 30.689 65.842 31.106 65.485 31.819 65.247 31.759 64.772 32.413 64.593 33.364 64.414 33.959 65.127 35.029 65.901 35.504 66.672V67.029L36.098 66.672 35.802 66.139 35.921 65.542 35.385 65.306 34.91 64.653 35.207 63.7 35.741 64.473 36.512 65.069 36.809 66.139 37.583 66.732 37.762 67.386 38.119 66.614 38 66.257 38.177 65.96 39.305 65.009 39.544 63.82 40.021 63.464 40.614 63.524 41.508 62.631 41.566 63.346 42.873 63.761V64.415H41.805L40.2 65.247 38.893 65.961 39.248 66.733 40.437 66.97 41.091 67.268 41.804 66.793 41.863 68.814 39.842 69.23 37.702 68.635 36.87 69.289 37.226 69.645 36.571 69.526 34.493 68.754 33.898 68.814 33.421 68.041V67.09H32.351L31.757 66.971 29.855 67.388 28.369 67.269 27.715 67.626 27.299 67.686 27.062 68.457 25.695 69.408 23.792 70.836 23.673 72.677 23.139 73.867 23.198 74.579 23.674 75.413 25.042 77.73 26.469 78.384 28.846 78.563 28.727 77.551 28.193 77.255 28.43 76.719 28.846 77.195 29.263 78.443 31.045 78.563 31.759 79.276 32.77 79.692 32.888 81.416 33.959 82.783 34.969 84.566 34.077 85.636 34.988 87.052C24.007 86.656 15.226 77.634 15.226 66.556M42.772 85.836L45.252 84.032 44.36 81.833 47.214 78.088 48.104 75.71 48.52 74.401 47.035 75.116 46.143 75.295 43.945 73.927 43.29 72.44 42.459 71.608 41.39 69.23 42.281 69.944 43.947 71.787 44.541 72.618 45.729 73.214 46.085 74.76 47.513 73.808 49.237 71.667 50.069 69.469 49.415 68.935 49.058 68.28 48.642 69.053 47.811 70.004 46.621 68.694 46.266 67.685 47.098 67.864 47.93 68.279 49.119 67.864 49.833 68.101 51.733 66.793 52.804 67.387 53.457 67.031 54.879 69.269 55.582 68.597 55.596 67.744 55.656 65.187 56.093 63.976C56.2 64.821 56.261 65.68 56.261 66.554 56.259 75.417 50.642 82.966 42.772 85.836" fill="#19475c" data-fill-palette-color="accent"></path><path d="M87.597 20.826L69.667 8.96A1.04 1.04 0 0 0 68.874 8.809L49.015 13.002C48.615 13.086 48.3 13.398 48.21 13.8L48.091 14.337C47.997 14.76 48.173 15.197 48.536 15.437L56.85 20.94 56.511 22.473C53.507 24.725 51.554 28.303 51.554 32.344 51.554 39.16 57.083 44.69 63.896 44.69S76.24 39.161 76.24 32.344C76.24 30.88 75.971 29.481 75.503 28.178 75.688 27.942 75.815 27.69 75.874 27.423L76.288 25.547 81.652 24.414C82.319 25.357 82.755 26.502 82.864 27.961A1.69 1.69 0 0 0 81.942 29.461C81.942 30.012 82.209 30.495 82.616 30.805 82.155 33.157 81.54 37.478 82.766 39.394 83.127 39.957 83.639 40.318 84.245 40.433A0.76 0.76 0 0 0 84.529 38.943C84.396 38.918 84.221 38.853 84.044 38.576 83.611 37.9 83.51 36.566 83.59 35.06 83.964 36.228 84.539 37.279 85.426 37.863A0.76 0.76 0 0 0 86.26 36.595C85.068 35.81 84.565 33.118 84.457 30.935 84.977 30.646 85.332 30.098 85.332 29.461 85.332 28.794 84.943 28.223 84.383 27.947 84.283 26.392 83.879 25.127 83.255 24.076L87.116 23.26C87.517 23.176 87.832 22.864 87.921 22.463L88.04 21.926A1.045 1.045 0 0 0 87.597 20.826M67.042 16.721C67.059 16.584 67.198 16.472 67.457 16.417 67.973 16.309 68.77 16.471 69.237 16.779 69.47 16.933 69.577 17.095 69.559 17.233L69.483 17.609C69.465 17.746 69.327 17.857 69.069 17.912 68.551 18.021 67.756 17.859 67.289 17.551 67.056 17.396 66.949 17.234 66.966 17.097z" fill="#19475c" data-fill-palette-color="accent"></path><path d="M63.896 47.08C61.097 47.08 58.432 47.778 56.008 49.039 60.077 53.741 62.548 59.863 62.548 66.556 62.548 71.453 61.222 76.045 58.918 80H77.355C81.075 80 84.085 76.32 84.085 71.77 84.086 58.141 75.043 47.08 63.896 47.08" fill="#19475c" data-fill-palette-color="accent"></path></g></svg></g></svg></g><g id="text-0"><path d="M24.966 103.243v0c-0.363 0.962-0.836 1.871-1.417 2.728-0.591 0.861-1.285 1.587-2.084 2.179-0.798 0.591-1.676 0.971-2.633 1.141-0.954 0.163-1.986 0.035-3.097-0.384v0c-1.039-0.392-1.964-0.981-2.773-1.767-0.803-0.783-1.5-1.673-2.09-2.67-0.586-0.988-1.074-1.969-1.466-2.943v0c-0.535-1.375-0.99-2.878-1.362-4.509-0.373-1.631-0.622-3.314-0.748-5.051-0.122-1.728-0.101-3.424 0.063-5.088 0.168-1.655 0.514-3.177 1.037-4.564v0c0.227-0.6 0.566-1.225 1.017-1.873 0.449-0.642 0.979-1.138 1.592-1.49 0.621-0.356 1.312-0.389 2.074-0.102v0c0.684 0.258 1.268 0.744 1.751 1.458 0.492 0.709 0.883 1.558 1.174 2.545 0.3 0.984 0.521 2.03 0.663 3.138 0.142 1.108 0.22 2.211 0.233 3.308 0.007 1.094-0.038 2.103-0.135 3.025-0.093 0.931-0.221 1.698-0.382 2.3v0c-0.034 0.149-0.078 0.295-0.132 0.437-0.054 0.142-0.106 0.281-0.157 0.417v0c-0.046 0.123-0.158 0.368-0.334 0.737-0.17 0.371-0.371 0.708-0.603 1.011-0.226 0.306-0.439 0.421-0.639 0.345v0c-0.103-0.039-0.132-0.12-0.086-0.242v0c0.029-0.077 0.086-0.17 0.172-0.279 0.083-0.102 0.158-0.243 0.226-0.423v0c0.183-0.484 0.299-1.152 0.347-2.004 0.049-0.852 0.036-1.805-0.038-2.858-0.077-1.047-0.21-2.111-0.398-3.193-0.189-1.082-0.434-2.104-0.735-3.065-0.301-0.962-0.657-1.775-1.07-2.44-0.422-0.661-0.891-1.089-1.407-1.284v0c-0.484-0.183-0.907-0.147-1.268 0.107-0.359 0.248-0.665 0.59-0.919 1.025-0.259 0.433-0.453 0.817-0.579 1.154v0c-0.478 1.265-0.775 2.639-0.893 4.121-0.124 1.48-0.105 2.992 0.058 4.536 0.162 1.544 0.425 3.044 0.789 4.502 0.373 1.454 0.812 2.792 1.316 4.015v0c0.345 0.846 0.775 1.716 1.292 2.613 0.524 0.898 1.136 1.709 1.837 2.431 0.707 0.724 1.513 1.257 2.417 1.598v0c1.001 0.378 1.933 0.457 2.798 0.238 0.867-0.226 1.653-0.648 2.359-1.266 0.699-0.621 1.31-1.349 1.832-2.185 0.522-0.835 0.938-1.663 1.247-2.483v0c0.197-0.523 0.372-1.054 0.525-1.594 0.146-0.542 0.272-1.081 0.378-1.617v0c0.268-1.433 0.442-2.772 0.522-4.018 0.08-1.246 0.041-2.481-0.116-3.706-0.155-1.231-0.463-2.543-0.926-3.935v0c-0.009-0.092-0.011-0.148-0.004-0.167v0c0.039-0.103 0.12-0.132 0.243-0.085v0c0.058 0.022 0.134 0.095 0.227 0.218v0c0.548 1.107 0.952 2.343 1.21 3.71 0.263 1.375 0.397 2.787 0.403 4.235 0 1.446-0.11 2.861-0.33 4.245-0.227 1.382-0.554 2.638-0.981 3.768z" fill="#19475c" data-fill-palette-color="primary"></path><path d="M33.715 80.395v0c-0.45 0.712-0.963 1.13-1.54 1.255-0.575 0.135-1.145 0.023-1.711-0.334v0c-0.344-0.217-0.652-0.473-0.924-0.767-0.268-0.3-0.492-0.584-0.673-0.853v0c0.041 0.206 0.075 0.398 0.101 0.577 0.028 0.189 0.046 0.335 0.054 0.439v0c0.008 0.103-0.006 0.184-0.043 0.242v0c-0.044 0.07-0.11 0.077-0.198 0.022v0c-0.128-0.081-0.217-0.264-0.266-0.548v0c-0.123-0.968-0.275-1.761-0.455-2.381-0.18-0.62-0.318-1.241-0.413-1.865v0c-0.154-1.036-0.153-2.039 0.003-3.009 0.152-0.965 0.47-1.829 0.953-2.594v0c0.505-0.799 1.091-1.307 1.757-1.522 0.669-0.206 1.374-0.075 2.115 0.393v0c0.42 0.265 0.824 0.692 1.211 1.28 0.388 0.588 0.708 1.328 0.96 2.222v0c0.097 0.363 0.173 0.754 0.226 1.172 0.054 0.418 0.074 0.761 0.06 1.029v0c0.47-0.952 0.685-1.983 0.645-3.094-0.043-1.121-0.132-2.156-0.266-3.106v0c0.001-0.13 0.012-0.213 0.034-0.248v0c0.055-0.088 0.13-0.102 0.223-0.043v0c0.07 0.044 0.124 0.14 0.162 0.286v0c0.247 1.25 0.341 2.484 0.281 3.703-0.054 1.223-0.437 2.372-1.15 3.449v0c-0.052 0.857-0.17 1.651-0.355 2.383-0.185 0.732-0.449 1.369-0.791 1.912zM33.727 78.689v0c0.158-0.251 0.283-0.552 0.374-0.902 0.097-0.347 0.164-0.712 0.203-1.097v0c-0.07 0.111-0.192 0.181-0.365 0.21-0.168 0.033-0.345-0.01-0.532-0.127v0c-0.362-0.228-0.647-0.597-0.857-1.105-0.206-0.514-0.321-1.056-0.344-1.625-0.02-0.576 0.09-1.053 0.329-1.433v0c0.14-0.222 0.327-0.389 0.562-0.502 0.244-0.115 0.471-0.119 0.68-0.011v0c-0.149-0.527-0.388-0.975-0.716-1.346-0.323-0.367-0.657-0.66-1.001-0.877v0c-0.473-0.298-0.925-0.376-1.358-0.233-0.433 0.143-0.81 0.468-1.131 0.975v0c-0.31 0.49-0.48 1.141-0.511 1.954-0.028 0.807 0.067 1.638 0.285 2.494 0.22 0.866 0.542 1.668 0.964 2.408 0.426 0.734 0.928 1.284 1.505 1.649v0c0.782 0.494 1.419 0.35 1.913-0.432z" fill="#19475c" data-fill-palette-color="primary"></path><path d="M46.223 62.498v0c-0.572 0.636-1.13 0.941-1.674 0.916-0.544-0.025-1.023-0.225-1.439-0.598v0c-0.395-0.355-0.749-0.813-1.061-1.374-0.312-0.55-0.581-1.103-0.806-1.658v0c0.036 0.413 0.062 0.798 0.076 1.155 0.014 0.356 0.017 0.647 0.009 0.871v0c-0.009 0.113-0.041 0.2-0.096 0.262v0c-0.074 0.082-0.152 0.086-0.234 0.012v0c-0.077-0.069-0.105-0.183-0.084-0.34v0c0.013-0.592-0.026-1.333-0.117-2.222-0.096-0.894-0.225-1.762-0.386-2.603v0c-0.129-0.692-0.306-1.543-0.53-2.552-0.214-1.01-0.46-2.057-0.737-3.142-0.282-1.089-0.56-2.059-0.834-2.91v0c-0.046-0.134-0.116-0.294-0.209-0.48-0.093-0.186-0.196-0.329-0.308-0.431v0c-0.159-0.143-0.296-0.151-0.412-0.022v0c-0.032 0.036-0.085 0.156-0.157 0.36-0.072 0.214-0.142 0.42-0.209 0.619-0.063 0.204-0.108 0.321-0.136 0.352v0c-0.115 0.128-0.18 0.056-0.194-0.217v0c0.036-0.432 0.137-0.926 0.303-1.482 0.171-0.551 0.38-1.092 0.626-1.623 0.246-0.531 0.498-0.94 0.756-1.227v0c0.605-0.672 1.123-0.814 1.553-0.426v0c0.221 0.199 0.421 0.569 0.601 1.111v0c0.13 0.433 0.24 0.991 0.33 1.676 0.095 0.689 0.176 1.435 0.242 2.237 0.076 0.802 0.152 1.585 0.226 2.348 0.084 0.763 0.17 1.415 0.257 1.958v0c0.017 0.136 0.084 0.479 0.201 1.03 0.112 0.546 0.263 1.188 0.453 1.926 0.19 0.738 0.406 1.493 0.647 2.267 0.236 0.779 0.501 1.481 0.792 2.106 0.287 0.62 0.592 1.076 0.915 1.366v0c0.431 0.388 0.833 0.374 1.207-0.041v0c0.245-0.272 0.474-0.687 0.689-1.246v0c0.216-0.529 0.372-1.146 0.467-1.849 0.1-0.709 0.172-1.424 0.217-2.144 0.05-0.726 0.071-1.389 0.064-1.99-0.012-0.595-0.026-1.049-0.042-1.361v0c-0.009-0.175 0.016-0.296 0.076-0.363v0c0.055-0.062 0.122-0.058 0.199 0.012v0c0.082 0.074 0.127 0.184 0.134 0.33v0c0.041 0.501 0.078 1.166 0.113 1.995 0.038 0.824 0.036 1.703-0.008 2.639-0.044 0.926-0.176 1.81-0.396 2.651-0.22 0.842-0.581 1.543-1.084 2.102z" fill="#19475c" data-fill-palette-color="primary"></path><path d="M58.97 49.572v0c-0.66 0.545-1.257 0.764-1.791 0.659-0.534-0.105-0.979-0.373-1.335-0.804v0c-0.338-0.41-0.621-0.915-0.847-1.515-0.228-0.59-0.412-1.177-0.552-1.759v0c-0.025 0.414-0.057 0.798-0.096 1.153-0.039 0.354-0.079 0.642-0.12 0.863v0c-0.025 0.11-0.07 0.192-0.133 0.245v0c-0.085 0.07-0.163 0.063-0.233-0.022v0c-0.066-0.08-0.077-0.196-0.033-0.349v0c0.1-0.584 0.171-1.322 0.212-2.215 0.037-0.898 0.038-1.776 0.002-2.632v0c-0.026-0.703-0.075-1.571-0.147-2.602-0.063-1.03-0.151-2.103-0.266-3.216-0.118-1.119-0.25-2.119-0.396-3.001v0c-0.026-0.14-0.071-0.308-0.135-0.506-0.064-0.197-0.145-0.355-0.242-0.472v0c-0.136-0.165-0.271-0.193-0.404-0.082v0c-0.037 0.031-0.107 0.142-0.208 0.333-0.103 0.201-0.202 0.395-0.298 0.581-0.092 0.192-0.154 0.301-0.186 0.328v0c-0.133 0.11-0.187 0.029-0.161-0.243v0c0.099-0.422 0.272-0.895 0.519-1.421 0.251-0.52 0.537-1.024 0.858-1.513 0.321-0.489 0.631-0.856 0.929-1.102v0c0.697-0.575 1.23-0.639 1.599-0.193v0c0.189 0.229 0.332 0.625 0.431 1.189v0c0.065 0.447 0.091 1.016 0.079 1.706-0.008 0.695-0.038 1.445-0.091 2.248-0.043 0.805-0.084 1.59-0.123 2.356-0.029 0.767-0.041 1.425-0.034 1.974v0c-0.003 0.137 0.012 0.486 0.046 1.049 0.03 0.557 0.085 1.214 0.164 1.971 0.079 0.758 0.181 1.537 0.306 2.338 0.119 0.805 0.277 1.539 0.473 2.2 0.192 0.656 0.426 1.151 0.703 1.486v0c0.369 0.447 0.769 0.493 1.2 0.137v0c0.282-0.233 0.571-0.609 0.865-1.13v0c0.292-0.492 0.537-1.078 0.735-1.761 0.203-0.686 0.38-1.383 0.531-2.088 0.156-0.71 0.275-1.363 0.357-1.958 0.076-0.591 0.129-1.041 0.159-1.353v0c0.017-0.175 0.06-0.291 0.129-0.348v0c0.064-0.053 0.129-0.039 0.194 0.041v0c0.07 0.085 0.098 0.201 0.085 0.346v0c-0.033 0.502-0.094 1.165-0.184 1.99-0.084 0.82-0.216 1.69-0.397 2.609-0.18 0.909-0.441 1.764-0.782 2.564-0.341 0.801-0.802 1.44-1.382 1.919z" fill="#19475c" data-fill-palette-color="primary"></path><path d="M73.712 38.707v0c-0.809 0.489-1.605 0.699-2.388 0.631-0.782-0.068-1.4-0.477-1.853-1.227v0c-0.489-0.809-0.748-1.68-0.779-2.612-0.04-0.935 0.104-1.856 0.435-2.765 0.327-0.914 0.782-1.749 1.365-2.505 0.584-0.755 1.254-1.361 2.01-1.818v0c0.75-0.453 1.39-0.654 1.921-0.604 0.533 0.041 0.915 0.254 1.146 0.638v0c0.221 0.366 0.285 0.86 0.192 1.48-0.087 0.617-0.358 1.276-0.813 1.978v0c-0.297 0.429-0.663 0.872-1.096 1.327-0.444 0.453-0.861 0.798-1.251 1.033v0c-0.289 0.175-0.463 0.215-0.52 0.12v0c-0.043-0.071 0.063-0.183 0.317-0.336v0c0.242-0.146 0.573-0.439 0.994-0.878 0.422-0.448 0.802-0.935 1.137-1.46v0c0.353-0.616 0.55-1.138 0.59-1.566 0.046-0.431-0.002-0.764-0.144-1v0c-0.132-0.219-0.331-0.348-0.598-0.389-0.26-0.044-0.547 0.028-0.86 0.217v0c-0.295 0.178-0.576 0.461-0.843 0.847v0c-0.395 0.561-0.709 1.282-0.942 2.165-0.227 0.879-0.333 1.752-0.316 2.621 0.022 0.865 0.21 1.59 0.564 2.174v0c0.246 0.408 0.566 0.678 0.96 0.811 0.398 0.139 0.827 0.069 1.288-0.21v0c0.478-0.289 0.937-0.771 1.376-1.447 0.441-0.685 0.848-1.447 1.22-2.284 0.373-0.838 0.695-1.653 0.966-2.445 0.277-0.796 0.487-1.45 0.629-1.963v0c0.042-0.171 0.093-0.274 0.151-0.31v0c0.053-0.032 0.106-0.004 0.16 0.085v0c0.078 0.13 0.09 0.276 0.035 0.439v0c-0.308 1.065-0.66 2.192-1.054 3.38-0.4 1.193-0.916 2.314-1.547 3.365-0.635 1.044-1.452 1.88-2.452 2.508z" fill="#19475c" data-fill-palette-color="primary"></path><path d="M87.907 39.556v0c-1.233 0.446-2.303 0.671-3.211 0.677-0.912 0.014-1.696-0.135-2.353-0.448v0c-0.449-0.227-0.916-0.564-1.4-1.012-0.481-0.457-0.79-0.877-0.929-1.26v0c-0.052-0.143-0.048-0.225 0.01-0.246v0c0.143-0.052 0.263-0.003 0.361 0.145v0c0.021 0.058 0.169 0.265 0.444 0.62 0.284 0.36 0.682 0.718 1.193 1.077 0.52 0.362 1.18 0.604 1.979 0.726 0.8 0.122 1.735-0.011 2.806-0.398v0c1.272-0.46 2.303-1.17 3.093-2.131 0.799-0.957 1.424-2.059 1.874-3.309 0.451-1.249 0.803-2.558 1.057-3.926 0.258-1.377 0.491-2.72 0.7-4.028 0.216-1.311 0.486-2.491 0.811-3.54v0c-0.159 0.373-0.361 0.839-0.606 1.397-0.246 0.558-0.513 1.128-0.802 1.709-0.293 0.59-0.578 1.13-0.856 1.62-0.28 0.483-0.524 0.854-0.731 1.112v0c-0.345 0.426-0.694 0.768-1.048 1.028-0.345 0.264-0.679 0.455-1.004 0.572v0c-0.629 0.228-1.184 0.205-1.665-0.069-0.485-0.265-0.841-0.712-1.069-1.342v0c-0.211-0.584-0.289-1.286-0.233-2.106 0.056-0.82 0.296-1.718 0.721-2.693v0c0.43-1.021 1.086-1.959 1.966-2.813 0.873-0.851 1.787-1.45 2.741-1.794v0c0.344-0.124 0.688-0.208 1.031-0.252 0.35-0.046 0.687-0.039 1.009 0.02v0c0.446 0.096 0.787 0.207 1.024 0.334 0.239 0.134 0.448 0.315 0.626 0.544v0c0.123-0.045 0.335-0.059 0.634-0.042 0.299 0.016 0.591 0.061 0.874 0.135 0.275 0.069 0.441 0.185 0.5 0.348v0c0.028 0.078-0.02 0.198-0.145 0.36v0c-0.33 0.347-0.61 0.991-0.842 1.934-0.232 0.942-0.468 2.044-0.708 3.305-0.241 1.261-0.535 2.589-0.882 3.984-0.356 1.391-0.821 2.74-1.398 4.049-0.578 1.302-1.32 2.458-2.224 3.468-0.902 1.016-2.018 1.764-3.348 2.245zM89.857 28.847v0c0.402-0.145 0.823-0.525 1.261-1.139v0c0.337-0.467 0.687-1.022 1.048-1.667 0.361-0.644 0.705-1.308 1.03-1.99 0.317-0.687 0.579-1.31 0.788-1.87v0c0.391-1.007 0.499-1.754 0.323-2.241v0c-0.145-0.402-0.462-0.515-0.948-0.34v0c-0.48 0.174-1.061 0.648-1.742 1.423v0c-0.393 0.436-0.774 0.995-1.143 1.679-0.369 0.684-0.688 1.394-0.958 2.129-0.27 0.736-0.459 1.399-0.568 1.989v0c-0.107 0.699-0.094 1.23 0.037 1.593v0c0.16 0.441 0.45 0.586 0.872 0.434z" fill="#19475c" data-fill-palette-color="primary"></path><path d="M111.412 22.697v0c-0.925 0.195-1.746 0.132-2.462-0.189-0.717-0.321-1.165-0.911-1.346-1.769v0c-0.195-0.925-0.154-1.833 0.124-2.723 0.269-0.896 0.71-1.719 1.32-2.468 0.609-0.756 1.314-1.395 2.113-1.916 0.8-0.521 1.632-0.873 2.497-1.055v0c0.857-0.181 1.528-0.16 2.012 0.062 0.489 0.214 0.78 0.541 0.873 0.98v0c0.088 0.419-0.014 0.906-0.306 1.46-0.285 0.554-0.758 1.087-1.418 1.6v0c-0.422 0.308-0.913 0.605-1.473 0.893-0.568 0.282-1.075 0.47-1.521 0.564v0c-0.331 0.07-0.508 0.051-0.53-0.058v0c-0.017-0.081 0.12-0.152 0.41-0.213v0c0.277-0.058 0.686-0.226 1.227-0.502 0.546-0.284 1.065-0.619 1.555-1.005v0c0.536-0.466 0.894-0.894 1.072-1.284 0.185-0.392 0.25-0.723 0.193-0.993v0c-0.053-0.25-0.198-0.438-0.436-0.563-0.231-0.128-0.526-0.154-0.884-0.078v0c-0.338 0.071-0.696 0.245-1.075 0.522v0c-0.557 0.4-1.091 0.978-1.602 1.734-0.504 0.755-0.891 1.545-1.16 2.371-0.263 0.824-0.325 1.571-0.184 2.239v0c0.098 0.466 0.312 0.826 0.64 1.082 0.33 0.262 0.759 0.337 1.286 0.226v0c0.547-0.115 1.139-0.42 1.775-0.914 0.642-0.502 1.276-1.087 1.904-1.755 0.628-0.668 1.2-1.332 1.717-1.991 0.524-0.66 0.937-1.209 1.239-1.647v0c0.096-0.147 0.178-0.228 0.245-0.243v0c0.061-0.013 0.102 0.031 0.123 0.133v0c0.031 0.149-0.006 0.29-0.111 0.426v0c-0.642 0.904-1.344 1.852-2.108 2.845-0.771 0.995-1.627 1.884-2.568 2.668-0.943 0.777-1.99 1.298-3.141 1.561z" fill="#19475c" data-fill-palette-color="primary"></path><path d="M157.787 23.527v0c-0.485-0.068-0.807-0.28-0.966-0.638-0.152-0.356-0.2-0.735-0.144-1.138v0c0.075-0.533 0.271-1.018 0.591-1.454v0c0.696-0.941 1.536-1.91 2.518-2.908 0.991-1.004 2.015-2 3.074-2.987 1.058-0.987 2.03-1.931 2.915-2.831v0c-0.504-0.133-1.043-0.24-1.617-0.321v0c-1.442-0.202-3.039-0.241-4.791-0.117v0c-0.548 0.035-1.061 0.088-1.538 0.161-0.477 0.073-0.897 0.083-1.259 0.032v0c-0.232-0.033-0.418-0.1-0.556-0.203v0c-0.055-0.056-0.122-0.149-0.202-0.279-0.079-0.13-0.107-0.28-0.083-0.451v0c0.033-0.232 0.262-0.475 0.688-0.729 0.426-0.254 1.217-0.408 2.374-0.462v0c0.763-0.025 1.664 0.035 2.703 0.18v0c0.875 0.123 1.766 0.303 2.673 0.542 0.915 0.233 1.715 0.516 2.4 0.849v0c0.971-1.014 1.693-1.912 2.165-2.697 0.48-0.79 0.762-1.485 0.846-2.086v0c0.134-0.957-0.168-1.682-0.908-2.176-0.746-0.495-1.734-0.828-2.964-1.001v0c-0.793-0.111-1.649-0.168-2.567-0.171-0.918-0.01-1.86 0.025-2.827 0.105v0c-0.197 0.014-0.635 0.054-1.312 0.12-0.686 0.071-1.497 0.163-2.432 0.275-0.936 0.12-1.906 0.273-2.908 0.461-1.002 0.187-1.948 0.403-2.839 0.647-0.89 0.238-1.623 0.518-2.198 0.841-0.582 0.323-0.901 0.686-0.957 1.089v0c-0.047 0.335 0.143 0.696 0.569 1.083v0c0.035 0.047 0.051 0.08 0.049 0.101v0c-0.007 0.048-0.065 0.064-0.174 0.049v0c-0.123-0.017-0.234-0.068-0.335-0.151v0c-0.556-0.51-0.777-1.168-0.664-1.975v0c0.083-0.595 0.373-1.195 0.87-1.801 0.495-0.6 1.203-1.075 2.123-1.427v0c1.166-0.464 2.453-0.851 3.862-1.162 1.409-0.311 2.856-0.54 4.34-0.688 1.485-0.154 2.933-0.223 4.345-0.207 1.406 0.009 2.704 0.097 3.893 0.264v0c1.572 0.22 2.789 0.555 3.654 1.003 0.857 0.448 1.438 0.975 1.743 1.582 0.306 0.6 0.411 1.242 0.315 1.925v0c-0.128 0.916-0.534 1.845-1.216 2.788-0.69 0.948-1.42 1.78-2.189 2.494v0c-0.201 0.188-0.413 0.385-0.637 0.59-0.224 0.206-0.47 0.422-0.739 0.649v0c0.29 0.215 0.548 0.467 0.772 0.756v0c0.117 0.211 0.166 0.382 0.148 0.512v0c-0.02 0.144-0.112 0.204-0.276 0.181v0c-0.13-0.018-0.273-0.091-0.429-0.217v0c-0.135-0.13-0.277-0.237-0.426-0.321-0.149-0.084-0.314-0.173-0.495-0.268v0c-0.703 0.64-1.449 1.312-2.237 2.017-0.794 0.697-1.553 1.385-2.275 2.065-0.722 0.679-1.376 1.316-1.961 1.909v0c-0.327 0.344-0.694 0.725-1.101 1.142-0.408 0.424-0.77 0.871-1.087 1.342-0.311 0.479-0.504 0.985-0.578 1.518v0c-0.041 0.294-0.027 0.568 0.041 0.821 0.077 0.248 0.272 0.394 0.587 0.438v0c0.15 0.021 0.325 0.014 0.526-0.021v0l0.139-0.022c0.082 0.011 0.118 0.051 0.108 0.12v0c-0.014 0.102-0.112 0.176-0.292 0.22v0c-0.377 0.052-0.66 0.064-0.852 0.038z" fill="#19475c" data-fill-palette-color="primary"></path><path d="M176.294 24.849v0c-0.794-0.279-1.317-0.686-1.567-1.22-0.26-0.53-0.278-1.111-0.056-1.743v0c0.135-0.384 0.316-0.741 0.541-1.071 0.232-0.328 0.46-0.61 0.682-0.847v0c-0.191 0.086-0.371 0.162-0.541 0.227-0.178 0.069-0.316 0.119-0.415 0.15v0c-0.099 0.031-0.181 0.035-0.245 0.013v0c-0.078-0.027-0.1-0.09-0.066-0.188v0c0.05-0.143 0.209-0.27 0.474-0.382v0c0.916-0.336 1.655-0.661 2.22-0.974 0.564-0.314 1.139-0.587 1.725-0.82v0c0.975-0.381 1.953-0.604 2.935-0.668 0.974-0.067 1.888 0.05 2.74 0.35v0c0.892 0.314 1.517 0.771 1.876 1.373 0.35 0.606 0.38 1.322 0.089 2.149v0c-0.165 0.469-0.49 0.958-0.977 1.466-0.486 0.509-1.137 0.986-1.952 1.431v0c-0.332 0.176-0.696 0.337-1.091 0.483-0.395 0.146-0.725 0.242-0.99 0.288v0c1.033 0.246 2.086 0.225 3.16-0.062 1.083-0.292 2.072-0.61 2.968-0.953v0c0.127-0.028 0.21-0.036 0.249-0.022v0c0.098 0.034 0.128 0.104 0.092 0.208v0c-0.027 0.078-0.108 0.152-0.243 0.222v0c-1.163 0.52-2.345 0.887-3.547 1.1-1.204 0.22-2.41 0.103-3.618-0.351v0c-0.847 0.141-1.648 0.203-2.402 0.186-0.755-0.017-1.435-0.132-2.041-0.345zM177.96 24.481v0c0.28 0.098 0.601 0.153 0.963 0.163 0.36 0.017 0.731 0.001 1.114-0.047v0c-0.124-0.044-0.219-0.147-0.286-0.309-0.069-0.156-0.068-0.338 0.005-0.547v0c0.142-0.404 0.437-0.764 0.886-1.082 0.455-0.315 0.957-0.548 1.507-0.698 0.557-0.148 1.047-0.147 1.47 0.001v0c0.247 0.087 0.452 0.232 0.615 0.436 0.167 0.212 0.221 0.432 0.162 0.661v0c0.48-0.263 0.864-0.596 1.153-1 0.286-0.397 0.496-0.787 0.631-1.171v0c0.185-0.527 0.16-0.986-0.075-1.376-0.236-0.39-0.637-0.685-1.203-0.884v0c-0.547-0.192-1.22-0.213-2.019-0.063-0.793 0.153-1.582 0.431-2.367 0.835-0.795 0.408-1.505 0.9-2.133 1.477-0.621 0.579-1.044 1.191-1.271 1.835v0c-0.307 0.872-0.024 1.462 0.848 1.769z" fill="#19475c" data-fill-palette-color="primary"></path><path d="M198.203 33.845v0c-0.806-0.452-1.265-0.911-1.375-1.377-0.101-0.468-0.047-0.889 0.162-1.262v0c0.273-0.487 0.749-0.897 1.425-1.23v0c0.402-0.194 0.857-0.413 1.366-0.658 0.503-0.248 0.978-0.48 1.424-0.696 0.44-0.22 0.75-0.378 0.931-0.475v0c0.237-0.112 0.386-0.195 0.447-0.247 0.067-0.049 0.121-0.11 0.162-0.183v0c0.064-0.114 0.056-0.261-0.026-0.441-0.087-0.183-0.29-0.364-0.609-0.544v0c-0.09-0.051-0.172-0.089-0.244-0.113-0.07-0.031-0.14-0.067-0.213-0.108v0c-0.15-0.084-0.23-0.141-0.238-0.169v0l-0.151 0.058c-0.915 0.404-1.856 0.77-2.823 1.098-0.977 0.33-1.977 0.576-3.001 0.738v0c-0.109 0.01-0.181 0.005-0.217-0.015v0c-0.072-0.041-0.088-0.097-0.048-0.169v0c0.084-0.15 0.29-0.256 0.618-0.319v0c0.857-0.16 1.736-0.387 2.637-0.68 0.901-0.294 1.766-0.651 2.595-1.072v0c-0.104-0.209-0.062-0.482 0.127-0.819v0c0.284-0.505 0.749-0.961 1.395-1.365v0c0.442-0.266 0.854-0.423 1.236-0.47 0.379-0.041 0.674-0.002 0.885 0.117v0c0.391 0.219 0.455 0.564 0.191 1.033v0c-0.165 0.295-0.486 0.606-0.962 0.932v0c-0.221 0.169-0.565 0.352-1.031 0.548-0.463 0.191-0.869 0.288-1.219 0.29v0c0.468 0.096 1.02 0.291 1.654 0.584 0.635 0.293 1.157 0.554 1.566 0.784v0c0.247 0.138 0.509 0.376 0.787 0.714 0.274 0.344 0.311 0.693 0.112 1.048v0c-0.135 0.241-0.393 0.44-0.775 0.598v0c-0.101 0.038-0.351 0.132-0.75 0.279-0.405 0.144-0.862 0.331-1.37 0.56-0.508 0.229-0.994 0.475-1.458 0.737v0c-0.446 0.217-0.823 0.437-1.13 0.66-0.31 0.214-0.524 0.426-0.642 0.637v0c-0.165 0.295-0.08 0.537 0.257 0.725v0c0.397 0.223 1.028 0.332 1.894 0.327 0.865-0.005 1.842-0.09 2.932-0.254 1.089-0.164 2.129-0.388 3.118-0.672v0c0.119-0.028 0.205-0.027 0.259 0.003v0c0.078 0.044 0.092 0.111 0.042 0.202v0c-0.064 0.114-0.171 0.193-0.322 0.235v0c-1.021 0.282-2.12 0.543-3.3 0.783-1.179 0.24-2.326 0.353-3.44 0.336-1.112-0.007-2.071-0.236-2.878-0.688z" fill="#19475c" data-fill-palette-color="primary"></path><path d="M227.01 58.139v0c-0.79-1.072-1.372-2.096-1.748-3.071-0.375-0.975-0.551-1.737-0.526-2.286v0c0.039-1.366 0.498-2.372 1.375-3.019v0c0.744-0.548 1.731-0.774 2.96-0.676 1.23 0.088 2.65 0.567 4.261 1.438 1.616 0.867 3.349 2.178 5.199 3.935v0c0.79 0.747 1.557 1.531 2.301 2.355 0.742 0.833 1.443 1.697 2.101 2.591v0c0.561 0.761 1.092 1.552 1.595 2.374 0.493 0.82 0.935 1.659 1.328 2.518v0c0.13 0.281 0.271 0.606 0.422 0.975 0.151 0.368 0.295 0.755 0.431 1.16v0c2.528 0.349 5.021 0.673 7.477 0.972 2.462 0.294 4.664 0.712 6.606 1.253v0c1.374 0.376 2.475 0.859 3.304 1.448 0.834 0.585 1.474 1.181 1.92 1.787v0c0.52 0.706 0.841 1.369 0.964 1.989 0.119 0.615 0.16 1.043 0.123 1.285v0c-0.013 0.087-0.063 0.124-0.15 0.11-0.092-0.009-0.131-0.062-0.116-0.158v0c0.039-0.157-0.002-0.444-0.121-0.862-0.123-0.423-0.375-0.893-0.756-1.41v0c-0.471-0.639-1.172-1.283-2.105-1.933-0.929-0.644-2.188-1.195-3.777-1.654v0c-1.976-0.541-4.093-0.961-6.352-1.259-2.259-0.298-4.536-0.614-6.83-0.947v0c0.251 0.852 0.374 1.712 0.371 2.581 0.002 0.864-0.267 1.563-0.807 2.098v0l-0.108 0.08c-0.067 0.049-0.112 0.057-0.137 0.024v0c-0.041-0.056-0.027-0.147 0.042-0.275v0c0.14-0.206 0.16-0.521 0.062-0.946-0.094-0.419-0.253-0.868-0.477-1.346-0.218-0.482-0.441-0.931-0.67-1.345-0.232-0.42-0.407-0.733-0.524-0.938v0l-0.183-0.302c-2.439-0.414-4.807-0.958-7.103-1.632-2.292-0.668-4.363-1.641-6.213-2.918v0c-0.875-0.606-1.658-1.251-2.349-1.933-0.681-0.681-1.278-1.368-1.79-2.063zM240.499 79.12v0c-0.017-1.187 0.23-2.248 0.742-3.182 0.512-0.934 1.215-1.731 2.109-2.389v0c0.9-0.663 1.915-1.17 3.044-1.523v0c1.146-0.364 2.429-0.611 3.85-0.741 1.427-0.134 2.872-0.191 4.335-0.172 1.464 0.01 2.834 0.06 4.108 0.15 1.28 0.086 2.348 0.169 3.204 0.249 0.858 0.071 1.378 0.108 1.56 0.11v0c0.213-0.002 0.339 0.024 0.38 0.08v0c0.049 0.067 0.03 0.158-0.056 0.273-0.087 0.115-0.199 0.224-0.338 0.326v0c-0.278 0.205-0.508 0.31-0.692 0.317v0c-0.898-0.033-2.018-0.035-3.36-0.006-1.342 0.028-2.787 0.12-4.335 0.275-1.554 0.159-3.105 0.38-4.653 0.664-1.544 0.289-2.985 0.665-4.324 1.129-1.339 0.463-2.458 1.026-3.358 1.689v0c-0.517 0.381-0.941 0.8-1.272 1.258-0.331 0.458-0.546 0.963-0.644 1.516v0c-0.004 0.029-0.023 0.056-0.057 0.08v0c-0.039 0.029-0.087 0.039-0.145 0.03-0.058-0.009-0.091-0.053-0.098-0.133zM227.505 57.903v0c0.471 0.639 1.036 1.285 1.697 1.938 0.66 0.663 1.401 1.303 2.226 1.921v0c1.563 1.145 3.449 2.036 5.657 2.672 2.207 0.646 4.524 1.167 6.951 1.565v0c-0.147-0.234-0.304-0.466-0.472-0.694-0.164-0.222-0.336-0.456-0.516-0.7v0c-0.892-1.211-1.88-2.424-2.964-3.64-1.084-1.216-2.169-2.328-3.255-3.336v0c-1.727-1.659-3.282-2.909-4.665-3.75-1.378-0.836-2.541-1.338-3.487-1.506-0.947-0.168-1.664-0.072-2.154 0.288v0c-0.467 0.344-0.7 0.876-0.701 1.596v0c0.004 0.366 0.146 0.873 0.428 1.524 0.276 0.654 0.694 1.361 1.255 2.122z" fill="#19475c" data-fill-palette-color="primary"></path><path d="M250.188 87.969v0c-0.355-0.779-0.412-1.412-0.172-1.901 0.24-0.489 0.614-0.849 1.123-1.08v0c0.483-0.22 1.044-0.362 1.682-0.426 0.629-0.067 1.243-0.093 1.842-0.077v0c-0.394-0.131-0.756-0.262-1.088-0.392-0.332-0.129-0.6-0.242-0.803-0.339v0c-0.1-0.053-0.167-0.117-0.202-0.192v0c-0.046-0.1-0.018-0.174 0.082-0.22v0c0.094-0.043 0.209-0.023 0.345 0.059v0c0.538 0.248 1.232 0.507 2.084 0.779 0.858 0.269 1.705 0.497 2.542 0.684v0c0.686 0.157 1.537 0.335 2.551 0.532 1.012 0.206 2.07 0.399 3.176 0.577 1.111 0.176 2.112 0.307 3.001 0.395v0c0.142 0.011 0.316 0.011 0.523 0.001 0.207-0.011 0.38-0.048 0.518-0.112v0c0.195-0.089 0.256-0.212 0.185-0.368v0c-0.02-0.044-0.109-0.14-0.268-0.288-0.167-0.151-0.329-0.297-0.484-0.439-0.162-0.139-0.251-0.227-0.269-0.264v0c-0.072-0.157 0.021-0.188 0.277-0.092v0c0.382 0.205 0.794 0.495 1.238 0.869 0.437 0.377 0.85 0.784 1.239 1.221 0.389 0.437 0.663 0.831 0.824 1.183v0c0.375 0.823 0.299 1.354-0.229 1.594v0c-0.27 0.123-0.69 0.159-1.259 0.108v0c-0.449-0.053-1.005-0.175-1.668-0.366-0.669-0.188-1.386-0.411-2.149-0.67-0.766-0.25-1.514-0.493-2.243-0.729-0.733-0.227-1.366-0.409-1.898-0.545v0c-0.131-0.039-0.473-0.114-1.025-0.227-0.545-0.115-1.194-0.233-1.946-0.352-0.752-0.12-1.531-0.223-2.337-0.311-0.809-0.094-1.558-0.132-2.247-0.114-0.683 0.016-1.222 0.114-1.618 0.294v0c-0.527 0.24-0.675 0.615-0.444 1.124v0c0.152 0.333 0.441 0.709 0.868 1.129v0c0.399 0.41 0.902 0.798 1.509 1.166 0.61 0.374 1.237 0.725 1.88 1.054 0.646 0.335 1.245 0.619 1.799 0.852 0.551 0.227 0.972 0.395 1.265 0.504v0c0.165 0.061 0.265 0.133 0.303 0.215v0c0.034 0.075 0.004 0.134-0.09 0.177v0c-0.1 0.046-0.219 0.043-0.356-0.008v0c-0.476-0.162-1.101-0.393-1.875-0.693-0.771-0.293-1.576-0.646-2.416-1.059-0.831-0.41-1.589-0.883-2.275-1.421-0.685-0.537-1.183-1.148-1.495-1.832z" fill="#19475c" data-fill-palette-color="primary"></path><path d="M256.96 104.814v0c-0.236-0.822-0.2-1.457 0.11-1.905 0.309-0.448 0.732-0.749 1.269-0.904v0c0.511-0.147 1.086-0.204 1.727-0.173 0.632 0.027 1.243 0.091 1.833 0.195v0c-0.37-0.188-0.71-0.37-1.018-0.547-0.309-0.177-0.557-0.328-0.745-0.454v0c-0.091-0.067-0.148-0.141-0.171-0.22v0c-0.03-0.106 0.007-0.174 0.114-0.205v0c0.099-0.029 0.21 0.008 0.333 0.109v0c0.495 0.324 1.144 0.684 1.946 1.077 0.809 0.392 1.613 0.743 2.413 1.051v0c0.655 0.257 1.47 0.557 2.445 0.902 0.97 0.353 1.989 0.699 3.056 1.039 1.073 0.338 2.044 0.615 2.91 0.833v0c0.138 0.032 0.311 0.058 0.518 0.078 0.207 0.02 0.383 0.008 0.529-0.034v0c0.206-0.059 0.285-0.172 0.236-0.337v0c-0.013-0.046-0.087-0.154-0.222-0.324-0.143-0.174-0.282-0.343-0.414-0.506-0.14-0.161-0.215-0.261-0.227-0.301v0c-0.048-0.166 0.048-0.183 0.287-0.05v0c0.347 0.259 0.713 0.606 1.097 1.042 0.377 0.437 0.726 0.901 1.045 1.39 0.32 0.49 0.534 0.92 0.641 1.292v0c0.25 0.869 0.096 1.383-0.461 1.543v0c-0.285 0.082-0.706 0.056-1.262-0.079v0c-0.436-0.119-0.968-0.321-1.596-0.608-0.635-0.284-1.31-0.611-2.026-0.979-0.721-0.36-1.425-0.711-2.111-1.052-0.691-0.333-1.29-0.606-1.797-0.819v0c-0.124-0.058-0.451-0.183-0.98-0.375-0.523-0.194-1.147-0.406-1.874-0.635-0.726-0.229-1.482-0.447-2.266-0.652-0.786-0.212-1.521-0.36-2.205-0.443-0.678-0.085-1.226-0.068-1.644 0.052v0c-0.557 0.16-0.758 0.509-0.604 1.046v0c0.101 0.351 0.331 0.766 0.692 1.244v0c0.334 0.464 0.775 0.922 1.321 1.376 0.549 0.46 1.117 0.9 1.704 1.319 0.589 0.427 1.141 0.796 1.654 1.108 0.511 0.305 0.904 0.534 1.177 0.685v0c0.154 0.085 0.243 0.171 0.267 0.257v0c0.023 0.08-0.015 0.134-0.115 0.162v0c-0.106 0.03-0.223 0.01-0.351-0.06v0c-0.447-0.231-1.031-0.551-1.752-0.961-0.719-0.404-1.464-0.872-2.234-1.405-0.762-0.528-1.442-1.108-2.04-1.739-0.598-0.632-1.001-1.31-1.209-2.033z" fill="#19475c" data-fill-palette-color="primary"></path><path d="M1.183 142.897c0-4.634 3.756-8.39 8.39-8.39 4.634 0 8.39 3.756 8.39 8.39 0 4.634-3.756 8.39-8.39 8.39-4.634 0-8.39-3.756-8.39-8.39z" fill="#19475c" data-fill-palette-color="primary"></path><path d="M261.757 142.897c0-4.634 3.756-8.39 8.39-8.39 4.634 0 8.39 3.756 8.39 8.39 0 4.634-3.756 8.39-8.39 8.39-4.634 0-8.39-3.756-8.39-8.39z" fill="#19475c" data-fill-palette-color="primary"></path></g><g id="text-1"><path d="M52.48 244.613v0c-0.271-0.202-0.474-0.414-0.611-0.636-0.13-0.218-0.186-0.362-0.166-0.434v0c0-0.035 0.016-0.057 0.049-0.066 0.023-0.008 0.041 0.009 0.052 0.051v0c0.036 0.113 0.165 0.252 0.386 0.417v0c0.249 0.186 0.613 0.35 1.092 0.492 0.485 0.146 1.098 0.173 1.839 0.08v0c0.612-0.094 1.293-0.262 2.042-0.505 0.753-0.248 1.562-0.513 2.428-0.797v0c-0.361-0.416-0.657-0.856-0.888-1.32-0.23-0.464-0.27-0.925-0.119-1.381v0c0.056-0.122 0.104-0.168 0.142-0.139 0.039 0.029 0.044 0.085 0.017 0.168v0c-0.013 0.214 0.113 0.454 0.379 0.721 0.271 0.271 0.562 0.522 0.871 0.753v0c0.199 0.149 0.389 0.281 0.569 0.398 0.189 0.115 0.331 0.208 0.425 0.279v0l0.058 0.043c1.353-0.429 2.799-0.787 4.34-1.076 1.531-0.287 3.091-0.324 4.68-0.112v0c1.06 0.136 2.018 0.399 2.873 0.787 0.859 0.383 1.629 0.828 2.31 1.335v0c0.691 0.516 1.153 1.131 1.386 1.847 0.231 0.706 0.132 1.347-0.297 1.922v0c-0.507 0.68-1.462 1.118-2.864 1.312-1.402 0.194-3.193-0.035-5.373-0.689v0c-1.215-0.355-2.435-0.821-3.658-1.398-1.228-0.58-2.348-1.278-3.359-2.092v0c-0.171-0.128-0.351-0.274-0.537-0.439-0.185-0.155-0.374-0.335-0.567-0.539v0c-1.006 0.368-1.936 0.704-2.79 1.005-0.858 0.307-1.601 0.502-2.23 0.584v0c-0.561 0.072-1.057 0.038-1.486-0.102-0.424-0.135-0.755-0.292-0.993-0.469zM61.578 243.044v0c0.963 0.555 2.029 1.065 3.196 1.531 1.167 0.466 2.295 0.859 3.381 1.179v0c2.088 0.628 3.726 0.902 4.913 0.823 1.187-0.079 1.951-0.348 2.293-0.807v0c0.252-0.337 0.288-0.698 0.109-1.081-0.189-0.382-0.477-0.717-0.864-1.006v0c-0.509-0.38-1.156-0.746-1.942-1.1-0.786-0.354-1.661-0.606-2.625-0.757v0c-1.382-0.213-2.799-0.177-4.252 0.109-1.452 0.285-2.856 0.655-4.209 1.109zM62.202 256.473v0c-0.094-0.07-0.072-0.157 0.066-0.261v0c0.045-0.026 0.093-0.073 0.142-0.139v0c0.194-0.26 0.14-0.679-0.161-1.256-0.297-0.583-0.82-1.261-1.568-2.035-0.747-0.764-1.702-1.579-2.863-2.445v0c-0.719-0.536-1.439-1.03-2.162-1.483-0.726-0.447-1.421-0.819-2.085-1.116v0c-0.479-0.211-1.002-0.416-1.569-0.615-0.572-0.203-1.113-0.4-1.624-0.591-0.51-0.182-0.914-0.385-1.213-0.608v0c-0.199-0.149-0.333-0.304-0.401-0.466-0.074-0.167-0.032-0.355 0.125-0.566v0c0.223-0.299 0.662-0.483 1.317-0.554 0.655-0.071 1.543 0.118 2.664 0.566v0c0.939 0.356 1.746 0.747 2.419 1.171 0.683 0.423 1.345 0.874 1.986 1.353v0c2.594 1.935 4.318 3.646 5.171 5.134 0.853 1.488 0.962 2.658 0.326 3.51v0c-0.037 0.05-0.072 0.097-0.105 0.141-0.037 0.05-0.086 0.104-0.146 0.162v0c-0.124 0.131-0.23 0.164-0.319 0.098z" fill="#444444" data-fill-palette-color="secondary"></path><path d="M65.412 257.362v0c-0.607-0.382-1.022-0.851-1.242-1.406-0.215-0.551-0.145-1.11 0.212-1.677v0c0.382-0.607 0.88-1.081 1.493-1.42 0.623-0.342 1.3-0.556 2.031-0.642 0.725-0.09 1.444-0.065 2.156 0.073 0.712 0.138 1.351 0.386 1.917 0.743v0c0.566 0.357 0.924 0.721 1.074 1.092 0.149 0.371 0.132 0.703-0.052 0.995v0c-0.173 0.274-0.485 0.485-0.937 0.633-0.446 0.151-0.987 0.194-1.622 0.129v0c-0.388-0.057-0.811-0.156-1.268-0.298-0.457-0.141-0.832-0.304-1.124-0.487v0c-0.222-0.14-0.311-0.245-0.267-0.315v0c0.037-0.058 0.151-0.027 0.344 0.095v0c0.181 0.114 0.493 0.241 0.935 0.38 0.446 0.134 0.904 0.222 1.374 0.266v0c0.543 0.032 0.964-0.009 1.263-0.122 0.303-0.119 0.512-0.269 0.626-0.45v0c0.103-0.163 0.125-0.341 0.066-0.533-0.059-0.192-0.208-0.363-0.447-0.514v0c-0.216-0.136-0.503-0.231-0.86-0.285v0c-0.511-0.069-1.105-0.032-1.783 0.113-0.674 0.138-1.301 0.363-1.881 0.675-0.58 0.312-1.007 0.687-1.283 1.124v0c-0.191 0.304-0.266 0.611-0.226 0.922 0.043 0.321 0.236 0.589 0.581 0.806v0c0.356 0.224 0.84 0.37 1.45 0.437 0.611 0.066 1.265 0.083 1.963 0.049 0.698-0.033 1.36-0.094 1.985-0.181 0.632-0.083 1.146-0.163 1.545-0.238v0c0.133-0.03 0.22-0.033 0.261-0.007v0c0.041 0.026 0.039 0.074-0.005 0.144v0c-0.059 0.093-0.151 0.149-0.277 0.168v0c-0.831 0.154-1.716 0.297-2.656 0.431-0.944 0.139-1.879 0.174-2.806 0.104-0.923-0.076-1.769-0.344-2.54-0.804z" fill="#444444" data-fill-palette-color="secondary"></path><path d="M72.047 261.654v0c-0.46-0.252-0.736-0.58-0.829-0.985-0.093-0.405-0.007-0.849 0.258-1.334v0c0.249-0.454 0.663-0.923 1.243-1.408v0l0.105-0.084-0.589 0.15c-0.088 0.031-0.168 0.026-0.241-0.014v0c-0.073-0.04-0.092-0.09-0.059-0.15v0c0.036-0.067 0.134-0.123 0.294-0.17v0c0.548-0.125 1.118-0.261 1.71-0.409 0.596-0.154 1.119-0.32 1.57-0.497v0c-0.126-0.014-0.247-0.052-0.361-0.115v0c-0.109-0.06-0.179-0.133-0.21-0.221v0c-0.057-0.126-0.034-0.282 0.069-0.47v0c0.086-0.157 0.248-0.281 0.486-0.371 0.244-0.087 0.639-0.067 1.184 0.058v0c0.116 0.032 0.231 0.067 0.343 0.105 0.116 0.048 0.228 0.093 0.338 0.138v0c0.809-0.399 1.534-0.777 2.177-1.132 0.64-0.365 1.112-0.587 1.415-0.666v0c0.144-0.047 0.345-0.047 0.602 0 0.264 0.05 0.531 0.122 0.803 0.215 0.271 0.093 0.48 0.18 0.625 0.259v0c0.472 0.258 0.685 0.43 0.638 0.515v0c-0.03 0.054-0.213 0.131-0.55 0.23v0c-0.543 0.143-1.192 0.338-1.949 0.585-0.756 0.247-1.544 0.528-2.362 0.843v0c0.382 0.28 0.705 0.595 0.97 0.944 0.265 0.35 0.41 0.688 0.435 1.017v0c0.015 0.102-0.006 0.205-0.062 0.308v0c-0.06 0.109-0.126 0.144-0.199 0.104v0c-0.054-0.03-0.1-0.098-0.136-0.205v0c-0.131-0.465-0.547-0.89-1.249-1.274v0c-0.145-0.08-0.294-0.153-0.446-0.22-0.161-0.065-0.329-0.125-0.503-0.181v0c-0.826 0.358-1.613 0.741-2.363 1.148-0.744 0.411-1.35 0.842-1.818 1.295v0c-0.224 0.208-0.396 0.421-0.515 0.638v0c-0.116 0.212-0.164 0.414-0.143 0.606 0.03 0.189 0.145 0.339 0.345 0.448v0c0.127 0.07 0.304 0.119 0.531 0.15v0c0.325 0.052 0.731 0.058 1.218 0.018 0.486-0.041 0.994-0.113 1.523-0.217 0.526-0.098 1.028-0.204 1.508-0.319 0.477-0.109 0.878-0.203 1.205-0.284 0.321-0.084 0.505-0.132 0.553-0.146v0c0.066-0.019 0.113-0.02 0.143-0.004v0c0.054 0.03 0.059 0.087 0.012 0.172v0c-0.056 0.103-0.15 0.174-0.281 0.212v0c-0.225 0.066-0.56 0.161-1.006 0.287-0.446 0.125-0.956 0.259-1.53 0.401-0.574 0.142-1.158 0.255-1.754 0.338-0.602 0.079-1.177 0.103-1.726 0.07-0.548-0.033-1.022-0.159-1.422-0.378z" fill="#444444" data-fill-palette-color="secondary"></path><path d="M84.385 258.292v0c-0.062-0.031-0.078-0.074-0.05-0.13v0c0.031-0.062 0.092-0.104 0.181-0.129v0c0.819-0.351 1.476-0.753 1.969-1.208 0.493-0.454 0.878-0.863 1.153-1.225 0.276-0.363 0.481-0.592 0.615-0.687v0c0.186-0.107 0.354-0.157 0.505-0.15 0.154 0.001 0.364 0.068 0.629 0.202v0c0.246 0.125 0.403 0.266 0.47 0.423 0.064 0.148 0.022 0.286-0.127 0.412v0c-0.263 0.23-0.616 0.477-1.059 0.74-0.446 0.254-0.922 0.508-1.43 0.761-0.513 0.251-1.007 0.469-1.48 0.655-0.476 0.177-0.875 0.292-1.195 0.346v0c-0.077 0.015-0.137 0.012-0.181-0.01z" fill="#444444" data-fill-palette-color="secondary"></path><path d="M82.762 267.036v0c-0.602-0.259-1.081-0.605-1.436-1.035-0.358-0.425-0.506-0.996-0.445-1.713v0c0.015-0.069 0.05-0.099 0.106-0.09 0.059 0.003 0.081 0.046 0.067 0.131v0c0.004 0.392 0.097 0.707 0.281 0.943 0.181 0.243 0.414 0.426 0.699 0.549v0c0.475 0.205 0.958 0.244 1.449 0.117 0.49-0.127 0.974-0.343 1.451-0.648 0.48-0.312 0.932-0.647 1.357-1.004 0.431-0.355 0.822-0.653 1.173-0.893v0c0.567-0.409 1.176-0.741 1.826-0.994 0.65-0.253 1.184-0.35 1.602-0.29v0c-0.07-0.083-0.171-0.153-0.304-0.21v0c-0.374-0.161-0.834-0.228-1.38-0.2-0.545 0.028-1.124 0.124-1.736 0.289-0.612 0.165-1.215 0.352-1.808 0.562-0.603 0.214-1.151 0.413-1.645 0.599-0.5 0.183-0.896 0.328-1.19 0.434v0c-0.158 0.052-0.268 0.065-0.331 0.038v0c-0.057-0.025-0.073-0.065-0.049-0.123v0c0.038-0.089 0.109-0.156 0.211-0.202v0c0.619-0.199 1.273-0.436 1.963-0.71 0.686-0.283 1.374-0.546 2.064-0.79 0.691-0.243 1.354-0.405 1.989-0.484 0.642-0.077 1.222-0.003 1.742 0.221v0c0.063 0.027 0.12 0.052 0.171 0.074 0.051 0.022 0.105 0.053 0.163 0.092v0c0.159 0.084 0.292 0.194 0.399 0.33 0.107 0.136 0.125 0.208 0.054 0.215v0c-0.405-0.002-0.803 0.18-1.193 0.545-0.39 0.365-0.796 0.81-1.217 1.335-0.424 0.531-0.883 1.055-1.376 1.572-0.497 0.507-1.064 0.909-1.702 1.205v0c0.242 0.014 0.645-0.015 1.209-0.088 0.561-0.081 1.195-0.203 1.904-0.363 0.711-0.167 1.404-0.391 2.08-0.67v0c0.082-0.032 0.154-0.035 0.218-0.008v0c0.07 0.03 0.088 0.083 0.055 0.159v0c-0.025 0.057-0.079 0.105-0.163 0.144v0c-0.572 0.212-1.201 0.433-1.886 0.664-0.683 0.224-1.397 0.409-2.143 0.553-0.737 0.141-1.466 0.202-2.187 0.185-0.721-0.018-1.402-0.164-2.042-0.441z" fill="#444444" data-fill-palette-color="secondary"></path><path d="M91.37 277.523v0c-0.957-0.268-1.717-0.599-2.28-0.993-0.57-0.396-0.991-0.836-1.264-1.321v0c-0.171-0.335-0.306-0.749-0.405-1.242-0.1-0.487-0.109-0.879-0.024-1.179v0c0.032-0.113 0.071-0.163 0.117-0.15v0c0.106 0.03 0.158 0.112 0.156 0.248v0c-0.013 0.047-0.013 0.24-0.001 0.58 0.017 0.349 0.106 0.746 0.268 1.193 0.16 0.453 0.46 0.892 0.9 1.316 0.438 0.431 1.073 0.762 1.903 0.995v0c0.983 0.275 1.932 0.29 2.847 0.044 0.912-0.239 1.786-0.647 2.621-1.222 0.826-0.571 1.621-1.223 2.385-1.955 0.764-0.732 1.501-1.457 2.21-2.176 0.701-0.714 1.388-1.324 2.061-1.831v0c-0.267 0.162-0.599 0.362-0.997 0.603-0.395 0.233-0.812 0.468-1.25 0.703-0.437 0.229-0.848 0.433-1.235 0.611-0.387 0.178-0.701 0.302-0.942 0.37v0c-0.403 0.109-0.771 0.168-1.102 0.175-0.332 0.007-0.624-0.024-0.877-0.094v0c-0.485-0.136-0.818-0.394-0.998-0.774-0.18-0.38-0.202-0.813-0.066-1.298v0c0.126-0.452 0.386-0.92 0.78-1.404 0.4-0.483 0.945-0.932 1.635-1.349v0c0.717-0.437 1.533-0.728 2.447-0.873 0.92-0.137 1.748-0.102 2.486 0.105v0c0.266 0.074 0.518 0.173 0.755 0.297 0.238 0.124 0.438 0.277 0.603 0.459v0c0.237 0.253 0.401 0.474 0.491 0.664 0.092 0.183 0.142 0.387 0.151 0.612v0c0.093 0.026 0.227 0.11 0.402 0.252 0.182 0.144 0.343 0.297 0.485 0.458 0.139 0.168 0.191 0.315 0.156 0.442v0c-0.017 0.06-0.099 0.112-0.248 0.156v0c-0.357 0.072-0.813 0.346-1.369 0.821-0.558 0.482-1.188 1.058-1.892 1.727-0.705 0.677-1.476 1.368-2.31 2.073-0.828 0.707-1.71 1.334-2.644 1.882-0.93 0.557-1.895 0.946-2.896 1.168-1.003 0.228-2.022 0.197-3.059-0.093zM97.289 271.774v0c0.312 0.087 0.741 0.039 1.288-0.145v0c0.412-0.142 0.871-0.333 1.374-0.572 0.511-0.237 1.017-0.496 1.519-0.779 0.502-0.282 0.938-0.547 1.308-0.794v0c0.686-0.453 1.082-0.869 1.187-1.248v0c0.087-0.312-0.058-0.521-0.437-0.628v0c-0.372-0.104-0.941-0.07-1.705 0.104v0c-0.43 0.102-0.91 0.283-1.442 0.542-0.529 0.253-1.038 0.548-1.526 0.884-0.495 0.334-0.905 0.66-1.231 0.978v0c-0.374 0.39-0.6 0.724-0.678 1.003v0c-0.097 0.346 0.018 0.564 0.343 0.655z" fill="#444444" data-fill-palette-color="secondary"></path><path d="M111.972 268.796v0c-0.222-0.052-0.369-0.165-0.441-0.337-0.081-0.168-0.103-0.329-0.068-0.484v0c0.076-0.322 0.301-0.603 0.676-0.84 0.375-0.238 0.73-0.318 1.066-0.239v0c0.222 0.052 0.369 0.165 0.442 0.338 0.081 0.168 0.103 0.329 0.067 0.483v0c-0.079 0.336-0.302 0.62-0.668 0.853-0.367 0.233-0.725 0.308-1.074 0.226zM106.621 275.237v0c-0.652-0.153-1.059-0.394-1.223-0.723-0.164-0.329-0.205-0.668-0.122-1.018v0c0.068-0.289 0.18-0.553 0.335-0.793 0.156-0.24 0.28-0.406 0.372-0.497v0c0.132-0.139 0.305-0.29 0.521-0.452 0.21-0.17 0.447-0.349 0.71-0.535v0c-0.379 0.195-0.735 0.384-1.069 0.568-0.342 0.189-0.615 0.327-0.82 0.413v0c-0.058 0.036-0.111 0.048-0.158 0.038v0c-0.06-0.014-0.081-0.062-0.062-0.143v0c0.03-0.128 0.146-0.231 0.35-0.311v0c0.492-0.253 0.981-0.542 1.469-0.867 0.486-0.318 0.945-0.614 1.378-0.888 0.433-0.274 0.801-0.453 1.104-0.538v0c0.318-0.088 0.57-0.135 0.756-0.141 0.186-0.006 0.336 0.004 0.45 0.031v0c0.175 0.041 0.293 0.097 0.354 0.168 0.068 0.073 0.071 0.137 0.008 0.193v0c-0.332 0.206-0.678 0.486-1.037 0.841-0.361 0.362-0.707 0.745-1.036 1.149-0.331 0.411-0.611 0.806-0.842 1.185-0.232 0.385-0.381 0.718-0.447 1.001v0c-0.093 0.396 0.018 0.632 0.334 0.705v0c0.302 0.071 0.728 0.026 1.275-0.136 0.55-0.169 1.14-0.402 1.771-0.701 0.632-0.305 1.227-0.608 1.787-0.909v0c0.076-0.053 0.138-0.074 0.185-0.063v0c0.081 0.019 0.115 0.069 0.102 0.152-0.012 0.082-0.045 0.131-0.098 0.147v0c-0.641 0.374-1.353 0.749-2.136 1.125-0.783 0.376-1.546 0.668-2.289 0.876-0.744 0.208-1.384 0.249-1.922 0.123z" fill="#444444" data-fill-palette-color="secondary"></path><path d="M112.818 276.632v0c-0.177-0.031-0.309-0.078-0.395-0.142v0c0.28-0.281 0.568-0.668 0.863-1.163 0.289-0.496 0.562-1.002 0.82-1.518 0.252-0.524 0.455-0.972 0.611-1.344 0.157-0.379 0.238-0.586 0.244-0.619v0l-1.185 0.834c-0.247 0.174-0.509 0.353-0.786 0.537-0.277 0.183-0.554 0.349-0.832 0.496v0c-0.069 0.037-0.138 0.071-0.206 0.101-0.061 0.031-0.116 0.043-0.164 0.035v0c-0.061-0.011-0.086-0.046-0.076-0.108v0c0.017-0.095 0.107-0.195 0.273-0.3v0c0.518-0.323 1.09-0.69 1.713-1.1 0.623-0.403 1.111-0.854 1.464-1.353v0c0.115-0.176 0.186-0.346 0.214-0.509v0c0.037-0.211 0.018-0.347-0.055-0.409v0c-0.053-0.058-0.072-0.128-0.058-0.21v0c0.025-0.143 0.108-0.202 0.251-0.177v0c0.095 0.017 0.21 0.082 0.344 0.196 0.141 0.115 0.245 0.221 0.313 0.317v0c0.157 0.223 0.238 0.486 0.242 0.788 0.005 0.295-0.019 0.595-0.072 0.901v0c-0.078 0.449-0.21 0.948-0.396 1.497-0.185 0.542-0.401 1.062-0.648 1.558-0.254 0.495-0.532 0.906-0.834 1.232v0l-0.063 0.062c0.106-0.045 0.201-0.088 0.285-0.129 0.085-0.048 0.144-0.084 0.176-0.106v0c0.566-0.399 1.079-0.871 1.537-1.415 0.457-0.537 0.894-1.095 1.309-1.674 0.417-0.586 0.833-1.13 1.25-1.632 0.417-0.509 0.868-0.928 1.352-1.258v0c0.286-0.196 0.619-0.26 1-0.194v0c0.211 0.037 0.412 0.131 0.602 0.283 0.19 0.159 0.311 0.366 0.366 0.62v0c0.015 0.073-0.005 0.111-0.062 0.115-0.058 0.011-0.098-0.02-0.121-0.094v0c-0.054-0.254-0.186-0.4-0.397-0.437v0c-0.204-0.035-0.502 0.071-0.895 0.318v0c-0.675 0.457-1.308 1.02-1.9 1.688-0.599 0.667-1.199 1.34-1.799 2.02-0.608 0.679-1.279 1.277-2.013 1.794v0c-0.303 0.214-0.676 0.363-1.118 0.447-0.45 0.09-0.834 0.107-1.154 0.052z" fill="#444444" data-fill-palette-color="secondary"></path><path d="M121.484 278.325v0c-0.713-0.084-1.288-0.33-1.726-0.736-0.431-0.405-0.608-0.94-0.53-1.605v0c0.084-0.713 0.33-1.354 0.739-1.924 0.416-0.576 0.935-1.06 1.558-1.453 0.616-0.393 1.276-0.679 1.978-0.86 0.702-0.181 1.386-0.232 2.05-0.153v0c0.665 0.079 1.144 0.253 1.439 0.524 0.295 0.271 0.421 0.578 0.381 0.921v0c-0.038 0.322-0.229 0.647-0.574 0.974-0.338 0.328-0.807 0.599-1.409 0.813v0c-0.375 0.115-0.799 0.208-1.273 0.277-0.474 0.069-0.882 0.083-1.225 0.043v0c-0.26-0.031-0.386-0.087-0.376-0.17v0c0.008-0.069 0.125-0.089 0.351-0.063v0c0.212 0.025 0.548 0.006 1.008-0.058 0.46-0.071 0.912-0.187 1.355-0.35v0c0.504-0.204 0.866-0.422 1.088-0.653 0.223-0.238 0.347-0.463 0.372-0.675v0c0.023-0.192-0.034-0.362-0.169-0.51-0.135-0.148-0.344-0.239-0.625-0.272v0c-0.254-0.03-0.553 0.007-0.899 0.113v0c-0.491 0.157-1.012 0.447-1.562 0.867-0.549 0.414-1.019 0.887-1.408 1.418-0.389 0.531-0.614 1.053-0.675 1.567v0c-0.042 0.356 0.022 0.666 0.192 0.93 0.176 0.271 0.467 0.43 0.871 0.478v0c0.418 0.049 0.917-0.027 1.497-0.23 0.58-0.202 1.178-0.469 1.793-0.798 0.616-0.33 1.187-0.669 1.715-1.017 0.534-0.347 0.965-0.64 1.292-0.879v0c0.107-0.085 0.185-0.124 0.233-0.118v0c0.048 0.006 0.067 0.05 0.058 0.131v0c-0.013 0.11-0.072 0.2-0.178 0.271v0c-0.684 0.496-1.422 1.006-2.214 1.531-0.792 0.532-1.622 0.965-2.488 1.3-0.866 0.328-1.745 0.45-2.639 0.366z" fill="#444444" data-fill-palette-color="secondary"></path><path d="M140.01 271.864v0c-0.228-0.002-0.396-0.08-0.504-0.233-0.116-0.146-0.173-0.299-0.172-0.457v0c0.003-0.331 0.162-0.654 0.476-0.968 0.314-0.314 0.643-0.47 0.988-0.466v0c0.228 0.002 0.396 0.08 0.505 0.233 0.116 0.146 0.173 0.299 0.171 0.457v0c-0.004 0.345-0.159 0.671-0.465 0.979-0.307 0.307-0.64 0.459-0.999 0.455zM136.197 279.319v0c-0.669-0.007-1.12-0.153-1.351-0.438-0.232-0.285-0.346-0.607-0.342-0.966v0c0.003-0.297 0.054-0.579 0.153-0.847 0.099-0.268 0.184-0.457 0.255-0.567v0c0.098-0.165 0.235-0.35 0.409-0.555 0.168-0.212 0.36-0.438 0.576-0.677v0c-0.327 0.273-0.633 0.535-0.919 0.787-0.292 0.259-0.529 0.453-0.71 0.583v0c-0.049 0.048-0.097 0.071-0.145 0.071v0c-0.062-0.001-0.093-0.042-0.092-0.125v0c0.001-0.131 0.092-0.258 0.273-0.38v0c0.425-0.354 0.839-0.744 1.244-1.167 0.405-0.417 0.788-0.806 1.15-1.169 0.363-0.362 0.683-0.618 0.96-0.766v0c0.291-0.156 0.527-0.257 0.707-0.303 0.18-0.046 0.328-0.069 0.446-0.068v0c0.179 0.002 0.307 0.031 0.382 0.086 0.082 0.056 0.099 0.118 0.05 0.187v0c-0.279 0.273-0.555 0.622-0.828 1.048-0.274 0.432-0.527 0.881-0.759 1.348-0.233 0.474-0.42 0.92-0.563 1.34-0.142 0.426-0.215 0.784-0.218 1.074v0c-0.004 0.407 0.156 0.612 0.48 0.615v0c0.31 0.003 0.716-0.134 1.216-0.411 0.5-0.285 1.024-0.642 1.574-1.071 0.55-0.436 1.065-0.862 1.545-1.278v0c0.063-0.068 0.118-0.102 0.166-0.102v0c0.083 0.001 0.127 0.043 0.134 0.126 0.006 0.083-0.015 0.138-0.064 0.165v0c-0.543 0.505-1.156 1.027-1.838 1.564-0.682 0.538-1.363 0.99-2.043 1.356-0.68 0.366-1.296 0.546-1.848 0.54z" fill="#444444" data-fill-palette-color="secondary"></path><path d="M143.137 279.717v0c-0.524 0.024-0.931-0.114-1.221-0.411-0.29-0.298-0.447-0.722-0.471-1.274v0c-0.023-0.517 0.087-1.133 0.331-1.849v0l0.046-0.126-0.426 0.434c-0.059 0.072-0.13 0.109-0.213 0.113v0c-0.083 0.004-0.126-0.029-0.128-0.098v0c-0.003-0.076 0.051-0.175 0.162-0.297v0c0.404-0.391 0.82-0.804 1.25-1.238 0.429-0.441 0.79-0.854 1.084-1.24v0c-0.115 0.054-0.238 0.083-0.369 0.089v0c-0.124 0.006-0.222-0.021-0.294-0.08v0c-0.114-0.078-0.176-0.223-0.185-0.437v0c-0.008-0.179 0.066-0.369 0.223-0.57 0.164-0.201 0.511-0.389 1.042-0.565v0c0.116-0.033 0.232-0.062 0.348-0.088 0.123-0.019 0.243-0.039 0.36-0.057v0c0.484-0.761 0.908-1.46 1.273-2.099 0.358-0.645 0.646-1.079 0.864-1.303v0c0.098-0.115 0.27-0.219 0.514-0.313 0.251-0.094 0.517-0.172 0.798-0.233 0.28-0.061 0.503-0.095 0.669-0.102v0c0.538-0.024 0.809 0.012 0.813 0.108v0c0.003 0.062-0.114 0.223-0.352 0.482v0c-0.389 0.404-0.843 0.908-1.361 1.512-0.519 0.604-1.045 1.252-1.581 1.946v0c0.472 0.041 0.911 0.142 1.319 0.304 0.408 0.161 0.708 0.376 0.899 0.643v0c0.066 0.08 0.101 0.178 0.107 0.296v0c0.006 0.124-0.033 0.188-0.116 0.191v0c-0.062 0.003-0.136-0.032-0.222-0.104v0c-0.353-0.329-0.93-0.476-1.729-0.44v0c-0.165 0.007-0.331 0.022-0.496 0.043-0.171 0.028-0.346 0.064-0.523 0.107v0c-0.52 0.735-0.994 1.471-1.424 2.208-0.423 0.737-0.717 1.421-0.882 2.05v0c-0.083 0.294-0.12 0.565-0.108 0.813v0c0.011 0.241 0.075 0.439 0.192 0.592 0.124 0.146 0.3 0.214 0.528 0.205v0c0.145-0.007 0.322-0.056 0.532-0.149v0c0.305-0.124 0.655-0.33 1.049-0.617 0.395-0.287 0.791-0.612 1.189-0.975 0.398-0.356 0.773-0.708 1.124-1.056 0.351-0.34 0.645-0.63 0.883-0.869 0.231-0.238 0.363-0.376 0.396-0.411v0c0.046-0.05 0.086-0.076 0.121-0.078v0c0.062-0.003 0.095 0.044 0.099 0.141v0c0.005 0.117-0.038 0.226-0.13 0.327v0c-0.158 0.173-0.395 0.429-0.712 0.767-0.316 0.339-0.683 0.718-1.099 1.138-0.416 0.419-0.858 0.819-1.324 1.199-0.473 0.38-0.953 0.699-1.438 0.956-0.486 0.257-0.956 0.395-1.411 0.415z" fill="#444444" data-fill-palette-color="secondary"></path><path d="M156.738 278.297v0c-0.497 0.08-0.907-0.014-1.23-0.284-0.33-0.268-0.535-0.651-0.615-1.148v0c-0.075-0.463-0.032-0.998 0.129-1.604 0.161-0.606 0.467-1.243 0.918-1.91v0c0.461-0.696 1.079-1.303 1.856-1.82 0.777-0.51 1.544-0.826 2.3-0.948v0c0.613-0.099 1.156-0.05 1.628 0.147 0.479 0.195 0.822 0.482 1.03 0.861v0c0.177-0.029 0.406-0.017 0.687 0.036 0.281 0.052 0.442 0.208 0.484 0.467v0c0.029 0.177-0.028 0.392-0.168 0.645v0c-0.084 0.174-0.242 0.448-0.476 0.821-0.228 0.365-0.431 0.751-0.61 1.158v0c-0.15 0.325-0.26 0.619-0.329 0.881-0.075 0.271-0.098 0.495-0.07 0.672v0c0.038 0.238 0.18 0.338 0.426 0.298v0c0.272-0.044 0.656-0.263 1.152-0.657v0c0.539-0.429 1.049-0.907 1.53-1.432 0.475-0.524 0.845-0.937 1.111-1.238v0c0.071-0.081 0.12-0.124 0.147-0.129v0c0.068-0.011 0.109 0.024 0.122 0.106v0c0.015 0.095-0.011 0.191-0.08 0.286v0c-0.122 0.153-0.366 0.44-0.731 0.862-0.358 0.421-0.776 0.866-1.253 1.335-0.475 0.475-0.953 0.874-1.432 1.195v0c-0.24 0.158-0.461 0.281-0.663 0.37-0.209 0.09-0.402 0.149-0.58 0.177v0c-0.436 0.07-0.786 0.001-1.05-0.208-0.265-0.216-0.431-0.525-0.496-0.926v0c-0.025-0.157-0.028-0.327-0.009-0.513 0.019-0.185 0.048-0.371 0.088-0.559v0l0.097-0.435c-0.333 0.578-0.683 1.075-1.049 1.49-0.359 0.414-0.727 0.781-1.101 1.101v0c-0.32 0.268-0.629 0.476-0.927 0.621-0.298 0.146-0.576 0.24-0.836 0.282zM157.384 277.553v0c0.286-0.046 0.677-0.288 1.172-0.724 0.489-0.435 1.036-1.072 1.642-1.911v0c0.08-0.111 0.233-0.31 0.459-0.598 0.225-0.295 0.465-0.624 0.722-0.987 0.256-0.363 0.468-0.719 0.635-1.067 0.167-0.349 0.234-0.628 0.2-0.84v0c-0.049-0.307-0.34-0.417-0.872-0.331v0c-0.47 0.076-0.999 0.347-1.588 0.812-0.595 0.473-1.132 1.109-1.611 1.906v0c-0.495 0.828-0.841 1.523-1.037 2.086-0.195 0.57-0.27 0.991-0.226 1.263v0c0.049 0.307 0.217 0.437 0.504 0.391z" fill="#444444" data-fill-palette-color="secondary"></path><path d="M176.245 274.612v0c-0.675 0.201-1.294 0.201-1.857 0.001-0.557-0.202-0.93-0.623-1.121-1.265v0c-0.205-0.688-0.226-1.376-0.064-2.065 0.154-0.694 0.439-1.344 0.857-1.95 0.417-0.606 0.913-1.132 1.486-1.575 0.567-0.442 1.171-0.759 1.812-0.95v0c0.642-0.191 1.149-0.216 1.522-0.074 0.375 0.148 0.611 0.384 0.707 0.707v0c0.065 0.218 0.066 0.452 0.003 0.701-0.063 0.249-0.203 0.406-0.421 0.471v0c-0.139 0.041-0.224 0.009-0.256-0.097v0c-0.024-0.079-0.022-0.159 0.005-0.239v0c0.089-0.379 0.096-0.694 0.021-0.945v0c-0.092-0.311-0.301-0.418-0.625-0.322v0c-0.265 0.079-0.578 0.283-0.94 0.614v0c-0.299 0.254-0.592 0.601-0.879 1.039-0.289 0.432-0.535 0.901-0.737 1.407-0.207 0.515-0.352 1.019-0.436 1.512-0.077 0.491-0.061 0.922 0.05 1.292v0c0.108 0.364 0.296 0.632 0.563 0.804 0.276 0.177 0.615 0.206 1.019 0.086v0c0.265-0.079 0.563-0.236 0.896-0.472 0.326-0.234 0.676-0.561 1.047-0.981v0c0.302-0.342 0.612-0.74 0.93-1.194 0.32-0.448 0.624-0.902 0.913-1.362 0.288-0.46 0.533-0.857 0.736-1.191v0c0.065-0.12 0.131-0.19 0.197-0.21v0c0.06-0.018 0.101 0.013 0.125 0.093v0c0.031 0.106 0.013 0.212-0.057 0.319v0c-0.291 0.497-0.618 1.033-0.979 1.609-0.355 0.573-0.739 1.123-1.151 1.649-0.41 0.532-0.829 0.988-1.257 1.367v0c-0.705 0.606-1.409 1.013-2.109 1.221z" fill="#444444" data-fill-palette-color="secondary"></path><path d="M187.208 270.703v0c-0.38 0.147-0.72 0.156-1.021 0.028-0.307-0.125-0.531-0.368-0.669-0.729v0c-0.089-0.232-0.135-0.514-0.138-0.846-0.006-0.323 0.047-0.684 0.159-1.082v0c0.166-0.604 0.342-1.145 0.527-1.623 0.176-0.482 0.286-0.898 0.329-1.248v0c0.044-0.328 0.036-0.569-0.024-0.723v0c-0.087-0.225-0.266-0.286-0.536-0.181v0c-0.245 0.094-0.538 0.359-0.881 0.795-0.349 0.438-0.652 1.051-0.91 1.838v0c-0.144 0.433-0.302 0.941-0.476 1.526-0.18 0.587-0.303 1.112-0.369 1.573v0c-0.026 0.202-0.047 0.406-0.063 0.613-0.017 0.206-0.029 0.547-0.038 1.024v0c-0.005 0.12-0.087 0.281-0.246 0.483-0.159 0.202-0.296 0.325-0.412 0.37v0c-0.097 0.037-0.16 0.017-0.189-0.06v0c-0.022-0.058-0.028-0.141-0.018-0.248v0c0.023-0.171 0.029-0.673 0.018-1.505-0.017-0.829-0.011-1.819 0.019-2.969v0c-0.137 0.334-0.287 0.695-0.448 1.082-0.17 0.384-0.371 0.772-0.604 1.165v0c-0.036 0.08-0.092 0.135-0.169 0.165v0c-0.09 0.035-0.15 0.014-0.18-0.063v0c-0.022-0.058 0.013-0.168 0.106-0.33v0c0.231-0.437 0.457-0.894 0.679-1.372 0.216-0.475 0.43-1.05 0.644-1.724v0c0.006-0.387 0.061-0.963 0.165-1.727 0.111-0.768 0.257-1.634 0.439-2.6 0.191-0.961 0.434-1.943 0.728-2.943 0.292-1.008 0.63-1.933 1.014-2.777v0c0.355-0.766 0.783-1.412 1.283-1.937 0.506-0.528 1.01-0.889 1.512-1.083v0c0.438-0.169 0.836-0.201 1.195-0.095 0.352 0.108 0.619 0.397 0.8 0.867v0c0.184 0.476 0.249 1.028 0.196 1.655-0.051 0.634-0.161 1.164-0.329 1.591v0c-0.367 0.985-0.878 1.951-1.533 2.9-0.655 0.948-1.385 1.825-2.19 2.631v0c-0.027 0.025-0.056 0.047-0.086 0.067-0.03 0.019-0.057 0.033-0.083 0.043v0c-0.109 0.042-0.179 0.025-0.209-0.053v0c-0.035-0.09 0.02-0.196 0.166-0.319v0c0.48-0.481 0.946-1.027 1.398-1.638 0.452-0.611 0.85-1.238 1.193-1.881 0.352-0.639 0.617-1.248 0.793-1.826v0c0.213-0.674 0.318-1.199 0.313-1.574-0.002-0.369-0.048-0.669-0.137-0.901v0c-0.117-0.303-0.343-0.389-0.677-0.26v0c-0.154 0.06-0.349 0.216-0.584 0.47-0.233 0.26-0.484 0.623-0.756 1.09v0c-0.416 0.723-0.814 1.561-1.193 2.513-0.375 0.944-0.713 1.947-1.013 3.009-0.296 1.054-0.554 2.111-0.773 3.172-0.219 1.061-0.396 2.079-0.529 3.056v0c0.087-0.33 0.177-0.664 0.268-1.002 0.098-0.341 0.205-0.656 0.323-0.946v0c0.257-0.676 0.563-1.216 0.917-1.619 0.351-0.394 0.703-0.66 1.057-0.796v0c0.393-0.152 0.757-0.155 1.094-0.012 0.334 0.137 0.578 0.406 0.732 0.805v0c0.082 0.212 0.126 0.432 0.133 0.659 0.009 0.233 0 0.451-0.026 0.653v0c-0.023 0.305-0.063 0.671-0.119 1.1-0.065 0.425-0.13 0.823-0.193 1.195v0c-0.135 0.703-0.157 1.174-0.065 1.412v0c0.055 0.142 0.143 0.189 0.265 0.142v0c0.154-0.06 0.365-0.263 0.631-0.61v0c0.212-0.274 0.437-0.612 0.673-1.014 0.239-0.396 0.474-0.804 0.703-1.226 0.229-0.421 0.427-0.79 0.594-1.105 0.167-0.316 0.274-0.527 0.321-0.635v0c0.055-0.125 0.106-0.196 0.151-0.213v0c0.045-0.017 0.076-0.004 0.093 0.041v0c0.03 0.077 0.016 0.205-0.041 0.382v0c-0.234 0.564-0.547 1.217-0.94 1.961-0.393 0.744-0.869 1.504-1.428 2.282v0c-0.209 0.302-0.432 0.548-0.67 0.735-0.232 0.186-0.454 0.319-0.666 0.402z" fill="#444444" data-fill-palette-color="secondary"></path><path d="M193.087 268.472v0c-0.456 0.214-0.876 0.236-1.261 0.066-0.391-0.167-0.693-0.479-0.908-0.935v0c-0.199-0.425-0.305-0.951-0.317-1.577-0.012-0.627 0.107-1.323 0.357-2.089v0c0.251-0.796 0.679-1.55 1.284-2.26 0.607-0.704 1.257-1.219 1.95-1.544v0c0.562-0.264 1.097-0.366 1.605-0.308 0.514 0.056 0.923 0.237 1.228 0.545v0c0.162-0.076 0.386-0.128 0.67-0.155 0.285-0.027 0.483 0.078 0.594 0.316v0c0.076 0.162 0.082 0.385 0.016 0.667v0c-0.033 0.191-0.11 0.497-0.231 0.92-0.118 0.414-0.208 0.841-0.268 1.281v0c-0.055 0.354-0.08 0.666-0.074 0.938 0.002 0.281 0.042 0.503 0.118 0.665v0c0.103 0.219 0.266 0.275 0.491 0.17v0c0.25-0.117 0.559-0.434 0.926-0.949v0c0.4-0.561 0.759-1.16 1.078-1.798 0.312-0.634 0.554-1.133 0.727-1.496v0c0.046-0.098 0.081-0.152 0.106-0.164v0c0.062-0.029 0.111-0.006 0.146 0.068v0c0.041 0.087 0.042 0.186 0.002 0.297v0c-0.075 0.18-0.231 0.524-0.466 1.03-0.229 0.504-0.508 1.046-0.836 1.628-0.326 0.588-0.676 1.102-1.048 1.543v0c-0.188 0.218-0.366 0.397-0.537 0.538-0.176 0.144-0.346 0.254-0.508 0.33v0c-0.4 0.188-0.756 0.217-1.067 0.089-0.315-0.134-0.558-0.386-0.732-0.754v0c-0.067-0.144-0.117-0.307-0.149-0.49-0.033-0.183-0.056-0.37-0.07-0.562v0l-0.026-0.445c-0.161 0.647-0.361 1.221-0.598 1.721-0.232 0.497-0.484 0.951-0.756 1.361v0c-0.234 0.346-0.474 0.63-0.721 0.853-0.246 0.222-0.488 0.389-0.725 0.5zM193.502 267.58v0c0.262-0.123 0.572-0.463 0.929-1.019 0.35-0.553 0.701-1.316 1.052-2.289v0c0.046-0.128 0.139-0.362 0.277-0.702 0.135-0.345 0.276-0.728 0.422-1.147 0.146-0.419 0.252-0.819 0.317-1.2 0.065-0.381 0.052-0.669-0.039-0.862v0c-0.132-0.281-0.442-0.307-0.929-0.079v0c-0.431 0.202-0.866 0.608-1.303 1.218-0.441 0.619-0.783 1.377-1.025 2.275v0c-0.249 0.932-0.389 1.696-0.422 2.291-0.03 0.601 0.013 1.027 0.13 1.277v0c0.132 0.281 0.329 0.36 0.592 0.237z" fill="#444444" data-fill-palette-color="secondary"></path><path d="M202.763 264.068v0c-0.137 0.08-0.324 0.143-0.559 0.192-0.232 0.054-0.499 0.054-0.802-0.002v0c0.034-0.299 0.094-0.712 0.179-1.24 0.076-0.53 0.149-1.107 0.219-1.729 0.076-0.626 0.128-1.238 0.156-1.837v0c-0.096 0.358-0.205 0.741-0.328 1.147-0.114 0.409-0.245 0.796-0.393 1.16v0c-0.025 0.094-0.074 0.162-0.145 0.204v0c-0.054 0.031-0.098 0.017-0.133-0.043v0c-0.041-0.072-0.033-0.188 0.025-0.35v0c0.19-0.581 0.394-1.241 0.612-1.98 0.223-0.743 0.31-1.42 0.26-2.029v0c-0.031-0.205-0.088-0.38-0.171-0.523v0c-0.107-0.185-0.206-0.28-0.296-0.283v0c-0.084-0.007-0.147-0.047-0.188-0.118v0c-0.073-0.125-0.046-0.224 0.079-0.297v0c0.072-0.041 0.137-0.059 0.197-0.054v0c0.197-0.018 0.424 0.03 0.681 0.144 0.251 0.118 0.491 0.373 0.719 0.767v0c0.131 0.227 0.253 0.499 0.366 0.817 0.112 0.318 0.204 0.703 0.275 1.157v0c0.046-0.402 0.102-0.801 0.167-1.198 0.065-0.397 0.127-0.751 0.186-1.064v0c0.126-0.663 0.33-1.2 0.611-1.61 0.277-0.416 0.572-0.714 0.882-0.893v0c0.364-0.211 0.72-0.278 1.068-0.2 0.348 0.078 0.62 0.287 0.817 0.627v0c0.156 0.269 0.243 0.585 0.263 0.949v0c0.024 0.138 0.026 0.368 0.005 0.69-0.02 0.323-0.045 0.672-0.075 1.048-0.024 0.372-0.052 0.708-0.087 1.007v0c-0.054 0.334-0.07 0.603-0.048 0.806 0.022 0.203 0.062 0.355 0.121 0.456v0c0.08 0.137 0.197 0.161 0.352 0.071v0c0.197-0.114 0.411-0.378 0.643-0.791v0c0.142-0.25 0.287-0.565 0.433-0.944 0.147-0.38 0.29-0.766 0.43-1.158 0.143-0.386 0.254-0.705 0.331-0.957v0c0.025-0.094 0.059-0.154 0.1-0.178v0c0.054-0.031 0.101-0.011 0.143 0.061v0c0.048 0.084 0.058 0.182 0.028 0.295v0c-0.19 0.636-0.43 1.35-0.722 2.14-0.286 0.787-0.625 1.462-1.017 2.024v0c-0.311 0.467-0.649 0.807-1.014 1.018v0c-0.311 0.18-0.607 0.24-0.888 0.179-0.273-0.058-0.499-0.242-0.679-0.552v0c-0.128-0.221-0.228-0.518-0.3-0.89v0c-0.078-0.465-0.096-0.965-0.055-1.499 0.039-0.525 0.104-1.045 0.196-1.561 0.086-0.512 0.167-0.95 0.245-1.314v0c0.065-0.301 0.056-0.523-0.027-0.666v0c-0.073-0.125-0.193-0.14-0.36-0.043v0c-0.167 0.097-0.363 0.338-0.587 0.722-0.218 0.381-0.412 0.9-0.581 1.557v0c-0.227 0.944-0.354 1.895-0.382 2.852-0.028 0.957-0.143 1.909-0.344 2.855v0c-0.107 0.532-0.309 0.885-0.608 1.058z" fill="#444444" data-fill-palette-color="secondary"></path><path d="M213.628 257.801v0c-0.584 0.393-1.175 0.578-1.772 0.555-0.591-0.027-1.074-0.318-1.447-0.873v0c-0.4-0.596-0.626-1.246-0.676-1.952-0.06-0.708 0.019-1.413 0.236-2.117 0.217-0.703 0.534-1.352 0.949-1.947 0.409-0.591 0.892-1.073 1.447-1.446v0c0.556-0.373 1.032-0.548 1.43-0.525 0.402 0.029 0.697 0.184 0.886 0.464v0c0.127 0.189 0.198 0.412 0.212 0.669 0.014 0.256-0.073 0.448-0.262 0.575v0c-0.12 0.081-0.211 0.075-0.272-0.017v0c-0.046-0.069-0.068-0.145-0.067-0.229v0c-0.028-0.388-0.115-0.691-0.262-0.909v0c-0.181-0.269-0.412-0.309-0.692-0.121v0c-0.229 0.154-0.467 0.443-0.715 0.867v0c-0.209 0.332-0.386 0.75-0.529 1.253-0.147 0.498-0.242 1.019-0.284 1.563-0.044 0.553-0.032 1.078 0.034 1.573 0.073 0.492 0.217 0.898 0.433 1.219v0c0.212 0.315 0.471 0.515 0.777 0.6 0.316 0.087 0.649 0.013 0.998-0.222v0c0.229-0.154 0.467-0.393 0.715-0.718 0.242-0.321 0.478-0.737 0.708-1.248v0c0.186-0.416 0.363-0.888 0.531-1.417 0.172-0.523 0.327-1.047 0.465-1.572 0.138-0.525 0.254-0.977 0.348-1.357v0c0.026-0.134 0.068-0.22 0.125-0.259v0c0.052-0.035 0.1-0.018 0.147 0.052v0c0.062 0.092 0.075 0.199 0.041 0.321v0c-0.13 0.561-0.282 1.17-0.455 1.827-0.168 0.653-0.37 1.292-0.607 1.917-0.233 0.63-0.497 1.19-0.792 1.68v0c-0.493 0.788-1.043 1.387-1.65 1.794z" fill="#444444" data-fill-palette-color="secondary"></path><path d="M220.745 252.873v0c-0.569 0.437-1.152 0.664-1.75 0.679-0.592 0.011-1.092-0.249-1.5-0.779v0c-0.437-0.569-0.709-1.2-0.815-1.893-0.105-0.703-0.071-1.412 0.101-2.128 0.167-0.711 0.439-1.377 0.815-1.997 0.376-0.62 0.83-1.134 1.361-1.541v0c0.531-0.408 0.996-0.618 1.396-0.63 0.4-0.012 0.705 0.119 0.915 0.393v0c0.198 0.257 0.288 0.623 0.27 1.098-0.012 0.471-0.159 0.993-0.441 1.567v0c-0.188 0.344-0.427 0.707-0.718 1.087-0.291 0.38-0.573 0.675-0.847 0.885v0c-0.208 0.16-0.337 0.207-0.387 0.141v0c-0.042-0.055 0.027-0.151 0.208-0.29v0c0.17-0.13 0.396-0.379 0.68-0.745 0.28-0.372 0.522-0.771 0.725-1.197v0c0.218-0.498 0.325-0.907 0.323-1.227-0.007-0.326-0.075-0.573-0.205-0.743v0c-0.118-0.153-0.277-0.235-0.477-0.247-0.2-0.011-0.413 0.069-0.637 0.242v0c-0.202 0.156-0.391 0.392-0.565 0.708v0c-0.242 0.456-0.412 1.026-0.512 1.712-0.104 0.68-0.11 1.346-0.018 1.998 0.092 0.652 0.296 1.183 0.611 1.593v0c0.219 0.284 0.481 0.462 0.787 0.531 0.316 0.071 0.635-0.018 0.957-0.266v0c0.334-0.257 0.637-0.66 0.911-1.209 0.274-0.55 0.516-1.158 0.726-1.824 0.21-0.666 0.383-1.308 0.518-1.926 0.14-0.621 0.244-1.132 0.311-1.531v0c0.018-0.135 0.046-0.218 0.084-0.247v0c0.038-0.029 0.083-0.011 0.133 0.054v0c0.067 0.088 0.088 0.194 0.062 0.318v0c-0.143 0.833-0.315 1.713-0.516 2.642-0.196 0.934-0.487 1.823-0.873 2.668-0.39 0.84-0.935 1.541-1.633 2.104z" fill="#444444" data-fill-palette-color="secondary"></path><path d="M226.221 243.855v0c-0.31 0.096-0.605 0.082-0.885-0.04-0.275-0.127-0.534-0.331-0.779-0.613v0c-0.344-0.396-0.651-0.892-0.922-1.488-0.267-0.591-0.491-1.223-0.674-1.896-0.188-0.669-0.336-1.312-0.444-1.932-0.103-0.624-0.147-1.148-0.132-1.572v0c0.035-0.981 0.153-1.723 0.355-2.227 0.192-0.505 0.405-0.859 0.64-1.063v0c0.208-0.181 0.398-0.268 0.568-0.261 0.166 0.002 0.276 0.034 0.331 0.097v0c0.14 0.161 0.199 0.435 0.177 0.819-0.022 0.385-0.076 0.807-0.162 1.265-0.087 0.468-0.144 0.907-0.173 1.316v0c-0.035 0.633-0.01 1.32 0.075 2.06 0.08 0.744 0.193 1.459 0.341 2.144 0.147 0.695 0.319 1.309 0.516 1.841 0.188 0.532 0.39 0.923 0.608 1.173v0c0.19 0.219 0.369 0.288 0.535 0.206v0c0.061-0.035 0.11-0.031 0.146 0.011v0c0.05 0.057 0.009 0.111-0.121 0.16zM226.887 247.746v0c-0.161 0.14-0.325 0.205-0.491 0.193v0c-0.23 0.008-0.432-0.087-0.603-0.284v0c-0.244-0.281-0.356-0.636-0.336-1.066v0c0.002-0.513 0.169-0.915 0.503-1.204v0c0.135-0.118 0.29-0.188 0.462-0.21v0c0.23-0.008 0.432 0.087 0.604 0.284v0c0.235 0.271 0.35 0.624 0.343 1.059v0c-0.004 0.543-0.165 0.952-0.482 1.228z" fill="#444444" data-fill-palette-color="secondary"></path></g></svg></g></svg></g></svg></g></svg></g><defs></defs></svg><rect width="279.72" height="279.72" fill="none" stroke="none" visibility="hidden"></rect></g></svg></g></svg>